<svg width="69" height="71" viewBox="0 0 69 71" fill="none" xmlns="http://www.w3.org/2000/svg">
<path d="M66.75 8.93945H17.1562C15.9636 8.93945 15 9.91133 15 11.1143V61.1356C15 62.3385 15.9636 63.3104 17.1562 63.3104H66.75C67.9427 63.3104 68.9062 62.3385 68.9062 61.1356V11.1143C68.9062 9.91133 67.9427 8.93945 66.75 8.93945ZM60.5238 24.809H56.2181C52.8422 24.809 52.1886 26.4265 52.1886 28.8052V34.0452H60.2476L59.1964 42.2485H52.1886V63.3104H43.7859V42.2553H36.7579V34.0452H43.7859V27.9965C43.7859 20.9758 48.0378 17.1495 54.2505 17.1495C57.2288 17.1495 59.7826 17.3737 60.5306 17.4757V24.809H60.5238Z" fill="#178CCA"/>
</svg>
