<svg width="70" height="71" viewBox="0 0 70 71" fill="none" xmlns="http://www.w3.org/2000/svg">
<path fill-rule="evenodd" clip-rule="evenodd" d="M21.7729 3.96189C25.1942 3.80531 26.285 3.77051 35 3.77051C43.715 3.77051 44.8058 3.8082 48.2242 3.96189C51.6425 4.11558 53.9758 4.65784 56.0175 5.44368C58.1554 6.24692 60.095 7.50253 61.6992 9.12641C63.3325 10.7184 64.5925 12.6438 65.3975 14.7723C66.1908 16.8021 66.7333 19.122 66.8908 22.5147C67.0483 25.922 67.0833 27.0065 67.0833 35.6681C67.0833 44.3327 67.0454 45.4172 66.8908 48.8186C66.7362 52.2114 66.1908 54.5312 65.3975 56.5611C64.5925 58.6898 63.3304 60.6184 61.6992 62.2127C60.095 63.8366 58.1554 65.0893 56.0175 65.8897C53.9758 66.6784 51.6425 67.2178 48.23 67.3744C44.8058 67.531 43.715 67.5658 35 67.5658C26.285 67.5658 25.1942 67.5281 21.7729 67.3744C18.3604 67.2207 16.0271 66.6784 13.9854 65.8897C11.8443 65.0892 9.90447 63.8345 8.30083 62.2127C6.66861 60.6198 5.4055 58.6921 4.59958 56.564C3.80916 54.5341 3.26666 52.2143 3.10916 48.8215C2.95166 45.4143 2.91666 44.3298 2.91666 35.6681C2.91666 27.0036 2.95458 25.9191 3.10916 22.5205C3.26375 19.122 3.80916 16.8021 4.59958 14.7723C5.40669 12.6441 6.67076 10.7164 8.30375 9.12351C9.90511 7.50108 11.843 6.24531 13.9825 5.44368C16.0242 4.65784 18.3575 4.11848 21.77 3.96189H21.7729ZM47.9646 9.70347C44.5812 9.54978 43.5662 9.51788 35 9.51788C26.4337 9.51788 25.4187 9.54978 22.0354 9.70347C18.9058 9.84555 17.2083 10.3646 16.0767 10.8025C14.5804 11.3824 13.51 12.0697 12.3871 13.1861C11.3226 14.2157 10.5034 15.4691 9.98958 16.8543C9.54916 17.9794 9.02708 19.6671 8.88416 22.7786C8.72958 26.1423 8.6975 27.1515 8.6975 35.6681C8.6975 44.1848 8.72958 45.1939 8.88416 48.5577C9.02708 51.6691 9.54916 53.3568 9.98958 54.4819C10.5029 55.8651 11.3225 57.1207 12.3871 58.1502C13.4225 59.2086 14.6854 60.0234 16.0767 60.5338C17.2083 60.9716 18.9058 61.4907 22.0354 61.6328C25.4187 61.7865 26.4308 61.8184 35 61.8184C43.5692 61.8184 44.5812 61.7865 47.9646 61.6328C51.0942 61.4907 52.7917 60.9716 53.9233 60.5338C55.4196 59.9538 56.49 59.2666 57.6129 58.1502C58.6775 57.1207 59.4971 55.8651 60.0104 54.4819C60.4508 53.3568 60.9729 51.6691 61.1158 48.5577C61.2704 45.1939 61.3025 44.1848 61.3025 35.6681C61.3025 27.1515 61.2704 26.1423 61.1158 22.7786C60.9729 19.6671 60.4508 17.9794 60.0104 16.8543C59.4271 15.3667 58.7358 14.3025 57.6129 13.1861C56.5773 12.1279 55.3166 11.3135 53.9233 10.8025C52.7917 10.3646 51.0942 9.84555 47.9646 9.70347V9.70347ZM30.9021 45.5013C33.1907 46.4485 35.739 46.5763 38.1119 45.863C40.4847 45.1496 42.5349 43.6394 43.9122 41.5902C45.2895 39.541 45.9085 37.0799 45.6635 34.6274C45.4184 32.1749 44.3246 29.883 42.5687 28.1432C41.4494 27.0311 40.096 26.1795 38.606 25.6498C37.1159 25.1201 35.5262 24.9255 33.9514 25.0799C32.3766 25.2343 30.8559 25.734 29.4986 26.5429C28.1413 27.3518 26.9813 28.4498 26.1021 29.7579C25.2229 31.0661 24.6464 32.5517 24.414 34.1079C24.1816 35.6642 24.2992 37.2523 24.7582 38.7579C25.2173 40.2635 26.0064 41.6493 27.0688 42.8153C28.1311 43.9813 29.4403 44.8987 30.9021 45.5013ZM23.3392 24.0748C24.8705 22.5523 26.6884 21.3447 28.6892 20.5207C30.69 19.6968 32.8344 19.2727 35 19.2727C37.1656 19.2727 39.31 19.6968 41.3108 20.5207C43.3116 21.3447 45.1295 22.5523 46.6608 24.0748C48.1921 25.5973 49.4069 27.4047 50.2356 29.3939C51.0643 31.383 51.4909 33.515 51.4909 35.6681C51.4909 37.8212 51.0643 39.9532 50.2356 41.9424C49.4069 43.9316 48.1921 45.739 46.6608 47.2615C43.5682 50.3362 39.3737 52.0636 35 52.0636C30.6263 52.0636 26.4318 50.3362 23.3392 47.2615C20.2465 44.1867 18.5091 40.0165 18.5091 35.6681C18.5091 31.3198 20.2465 27.1495 23.3392 24.0748V24.0748ZM55.1483 21.7144C55.5278 21.3585 55.8316 20.9305 56.0417 20.4558C56.2518 19.9811 56.364 19.4693 56.3716 18.9507C56.3792 18.4321 56.2821 17.9172 56.086 17.4366C55.8899 16.956 55.5988 16.5194 55.2299 16.1527C54.861 15.786 54.4219 15.4965 53.9385 15.3015C53.4551 15.1066 52.9372 15.01 52.4156 15.0176C51.894 15.0251 51.3792 15.1367 50.9017 15.3456C50.4243 15.5545 49.9938 15.8565 49.6358 16.2338C48.9396 16.9675 48.5585 17.9421 48.5733 18.9507C48.5881 19.9592 48.9976 20.9224 49.715 21.6356C50.4324 22.3489 51.4012 22.7561 52.4156 22.7708C53.4301 22.7855 54.4103 22.4065 55.1483 21.7144V21.7144Z" fill="#178CCA"/>
</svg>
