<svg width="69" height="71" viewBox="0 0 69 71" fill="none" xmlns="http://www.w3.org/2000/svg">
<path d="M67.9736 15.187C65.573 16.2599 62.9941 16.9849 60.283 17.3126C63.0804 15.6243 65.1732 12.9671 66.171 9.83692C63.5428 11.4115 60.6664 12.5198 57.6667 13.1137C55.6496 10.9413 52.9778 9.50149 50.0662 9.01766C47.1546 8.53382 44.166 9.03307 41.5646 10.4379C38.9631 11.8427 36.8942 14.0746 35.6792 16.7868C34.4642 19.4991 34.1709 22.5401 34.845 25.4378C29.5196 25.1681 24.3099 23.772 19.5541 21.3401C14.7983 18.9082 10.6025 15.4949 7.23925 11.3216C6.08925 13.3225 5.428 15.6423 5.428 18.1129C5.42672 20.337 5.96975 22.5271 7.0089 24.4888C8.04806 26.4504 9.55122 28.1231 11.385 29.3583C9.2583 29.29 7.17851 28.7104 5.31875 27.6677V27.8417C5.31854 30.9611 6.38835 33.9845 8.34665 36.3989C10.305 38.8133 13.0311 40.47 16.0626 41.0879C14.0898 41.6264 12.0213 41.7058 10.0136 41.3199C10.8689 44.004 12.535 46.3511 14.7786 48.0327C17.0221 49.7142 19.7309 50.6461 22.5256 50.6978C17.7814 54.4542 11.9223 56.4918 5.89088 56.4828C4.82247 56.4831 3.75497 56.4202 2.69388 56.2944C8.81612 60.2647 15.9429 62.3718 23.2214 62.3636C47.8601 62.3636 61.3295 41.7809 61.3295 23.9299C61.3295 23.3499 61.3151 22.7642 61.2892 22.1842C63.9092 20.2732 66.1707 17.9067 67.9679 15.1957L67.9736 15.187V15.187Z" fill="#178CCA"/>
</svg>
