<svg width="69" height="71" viewBox="0 0 69 71" fill="none" xmlns="http://www.w3.org/2000/svg">
<g clip-path="url(#clip0)">
<path d="M67.5625 19.7397C67.1718 18.334 66.4108 17.0613 65.3603 16.057C64.2801 15.0218 62.9562 14.2813 61.5135 13.9053C56.1143 12.4699 34.4828 12.4699 34.4828 12.4699C25.4648 12.3665 16.4491 12.8216 7.4865 13.8328C6.0438 14.2365 4.72237 14.9936 3.63975 16.0367C2.576 17.069 1.8055 18.342 1.403 19.7368C0.436122 24.9905 -0.0336561 30.3249 4.38223e-06 35.6682C-0.0344956 41.0067 0.434129 46.3394 1.403 51.5996C1.79688 52.9886 2.5645 54.2558 3.63113 55.2795C4.69775 56.3031 6.026 57.0425 7.4865 57.434C12.9576 58.8665 34.4828 58.8665 34.4828 58.8665C43.5122 58.9701 52.5394 58.515 61.5135 57.5036C62.9562 57.1277 64.2801 56.3872 65.3603 55.352C66.424 54.3283 67.1801 53.0553 67.5596 51.6692C68.5518 46.4176 69.0342 41.0809 69 35.7349C69.0746 30.3663 68.5928 25.0044 67.5625 19.7368V19.7397ZM27.6058 45.5971V25.7423L45.6033 35.6711L27.6058 45.5971Z" fill="#178CCA"/>
</g>
<defs>
<clipPath id="clip0">
<rect width="69" height="69.5948" fill="white" transform="translate(0 0.870605)"/>
</clipPath>
</defs>
</svg>
