<svg width="166" height="213" viewBox="0 0 166 213" fill="none" xmlns="http://www.w3.org/2000/svg">
<path d="M41.5 74.5501C41.5 71.7256 42.3745 69.0167 43.931 67.0195C45.4876 65.0222 47.5987 63.9001 49.8 63.9001H116.2C118.401 63.9001 120.512 65.0222 122.069 67.0195C123.626 69.0167 124.5 71.7256 124.5 74.5501V95.8501C124.5 98.6747 123.626 101.384 122.069 103.381C120.512 105.378 118.401 106.5 116.2 106.5H49.8C47.5987 106.5 45.4876 105.378 43.931 103.381C42.3745 101.384 41.5 98.6747 41.5 95.8501V74.5501ZM116.2 74.5501H49.8V95.8501H116.2V74.5501Z" fill="white"/>
<path d="M99.6 117.15C97.3987 117.15 95.2876 118.272 93.731 120.269C92.1745 122.267 91.3 124.976 91.3 127.8V138.45C91.3 141.275 92.1745 143.984 93.731 145.981C95.2876 147.978 97.3987 149.1 99.6 149.1H116.2C118.401 149.1 120.512 147.978 122.069 145.981C123.626 143.984 124.5 141.275 124.5 138.45V127.8C124.5 124.976 123.626 122.267 122.069 120.269C120.512 118.272 118.401 117.15 116.2 117.15H99.6ZM99.6 127.8H116.2V138.45H99.6V127.8Z" fill="white"/>
<path d="M41.5 122.475C41.5 121.063 41.9372 119.708 42.7155 118.71C43.4938 117.711 44.5494 117.15 45.65 117.15H78.85C79.9506 117.15 81.0062 117.711 81.7845 118.71C82.5628 119.708 83 121.063 83 122.475C83 123.887 82.5628 125.242 81.7845 126.24C81.0062 127.239 79.9506 127.8 78.85 127.8H45.65C44.5494 127.8 43.4938 127.239 42.7155 126.24C41.9372 125.242 41.5 123.887 41.5 122.475Z" fill="white"/>
<path d="M45.65 138.45C44.5494 138.45 43.4938 139.011 42.7155 140.01C41.9372 141.008 41.5 142.363 41.5 143.775C41.5 145.187 41.9372 146.542 42.7155 147.54C43.4938 148.539 44.5494 149.1 45.65 149.1H78.85C79.9506 149.1 81.0062 148.539 81.7845 147.54C82.5628 146.542 83 145.187 83 143.775C83 142.363 82.5628 141.008 81.7845 140.01C81.0062 139.011 79.9506 138.45 78.85 138.45H45.65Z" fill="white"/>
<path d="M24.9 63.9001C24.9 55.4264 27.5234 47.2998 32.193 41.308C36.8627 35.3162 43.1961 31.9501 49.8 31.9501H116.2C122.804 31.9501 129.137 35.3162 133.807 41.308C138.477 47.2998 141.1 55.4264 141.1 63.9001V149.1C141.1 157.574 138.477 165.7 133.807 171.692C129.137 177.684 122.804 181.05 116.2 181.05H49.8C43.1961 181.05 36.8627 177.684 32.193 171.692C27.5234 165.7 24.9 157.574 24.9 149.1V63.9001ZM49.8 42.6001C45.3974 42.6001 41.1751 44.8442 38.062 48.8387C34.9489 52.8332 33.2 58.251 33.2 63.9001V149.1C33.2 154.749 34.9489 160.167 38.062 164.161C41.1751 168.156 45.3974 170.4 49.8 170.4H116.2C120.603 170.4 124.825 168.156 127.938 164.161C131.051 160.167 132.8 154.749 132.8 149.1V63.9001C132.8 58.251 131.051 52.8332 127.938 48.8387C124.825 44.8442 120.603 42.6001 116.2 42.6001H49.8Z" fill="white"/>
</svg>
