<svg width="597" height="371" viewBox="0 0 597 371" fill="none" xmlns="http://www.w3.org/2000/svg">
<g clip-path="url(#clip0)">
<path d="M56.9066 257.305L28.7351 284.96H30.9106L2.73912 257.305V259.425C12.1296 250.206 21.5201 240.988 30.9106 231.769H28.6725L56.844 259.425C57.1441 259.62 57.5037 259.708 57.8622 259.673C58.2206 259.639 58.5558 259.484 58.8114 259.235C59.067 258.986 59.2273 258.658 59.2651 258.306C59.303 257.954 59.2162 257.601 59.0194 257.305C49.6289 248.086 40.2384 238.868 30.848 229.649C30.5561 229.372 30.1661 229.217 29.7602 229.217C29.3543 229.217 28.9643 229.372 28.6725 229.649L0.501055 257.305C0.223583 257.59 0.0687943 257.97 0.0687943 258.365C0.0687943 258.76 0.223583 259.139 0.501055 259.425L28.6725 287.081C28.9643 287.357 29.3543 287.512 29.7602 287.512C30.1661 287.512 30.5561 287.357 30.848 287.081C40.2384 277.862 49.6289 268.643 59.0194 259.425C59.1938 259.134 59.2658 258.795 59.2243 258.46C59.1827 258.125 59.0299 257.812 58.7894 257.571C58.549 257.33 58.2343 257.173 57.894 257.125C57.5536 257.077 57.2066 257.14 56.9066 257.305Z" fill="#812D65"/>
<path d="M546.542 93.5529L592.289 138.463V136.327L546.542 181.298H548.702L502.954 136.327V138.463C518.229 123.498 533.479 108.528 548.702 93.5529C548.901 93.2582 548.99 92.9052 548.955 92.5533C548.919 92.2015 548.762 91.8723 548.508 91.6214C548.254 91.3705 547.92 91.2132 547.562 91.176C547.204 91.1388 546.843 91.224 546.542 91.4172L500.826 136.327C500.544 136.613 500.386 136.996 500.386 137.395C500.386 137.793 500.544 138.176 500.826 138.463L546.589 183.387C546.88 183.66 547.266 183.812 547.669 183.812C548.071 183.812 548.457 183.66 548.749 183.387L594.511 138.463C594.794 138.176 594.951 137.793 594.951 137.395C594.951 136.996 594.794 136.613 594.511 136.327L548.702 91.4172C548.4 91.224 548.04 91.1388 547.682 91.176C547.323 91.2132 546.989 91.3705 546.736 91.6214C546.482 91.8723 546.324 92.2015 546.289 92.5533C546.253 92.9052 546.343 93.2582 546.542 93.5529Z" fill="#95D7BD"/>
<path d="M266.064 27.0257V78.3576C266.072 78.6186 266.149 78.873 266.285 79.0971C266.422 79.3211 266.614 79.5072 266.845 79.6379C267.075 79.7686 267.335 79.8395 267.601 79.844C267.867 79.8485 268.13 79.7864 268.364 79.6636L315.458 54.0207C315.681 53.8821 315.864 53.6904 315.992 53.4634C316.119 53.2364 316.186 52.9815 316.186 52.7224C316.186 52.4633 316.119 52.2083 315.992 51.9814C315.864 51.7544 315.681 51.5627 315.458 51.4241L268.286 25.7197C266.565 24.7825 265.015 27.3791 266.721 28.3317L313.814 53.9592V51.3626L266.737 77.0055L269.053 78.2961V27.0257C268.954 26.7126 268.755 26.4388 268.487 26.2443C268.218 26.0499 267.892 25.945 267.558 25.945C267.224 25.945 266.899 26.0499 266.63 26.2443C266.361 26.4388 266.163 26.7126 266.064 27.0257Z" fill="#7EA1F4"/>
<path d="M532.894 0L518.793 24.9976L548.795 24.9822L532.894 0Z" fill="#812D65"/>
<path d="M187.356 72.765C185.736 72.573 184.093 72.7003 182.523 73.1394C180.954 73.5784 179.489 74.3205 178.215 75.322C176.941 76.3235 175.884 77.5644 175.105 78.9721C174.325 80.3797 173.84 81.9259 173.677 83.5199C173.577 85.1309 173.825 86.7444 174.405 88.2546C174.985 89.7648 175.884 91.1375 177.042 92.2827C178.201 93.4278 179.593 94.3195 181.127 94.8991C182.662 95.4788 184.304 95.7334 185.945 95.6461C187.587 95.5589 189.191 95.1319 190.653 94.393C192.115 93.6541 193.401 92.6202 194.427 91.3589C195.452 90.0977 196.195 88.6378 196.606 87.075C197.016 85.5122 197.085 83.8818 196.809 82.2908C196.448 80.7334 195.77 79.2637 194.816 77.9701C193.861 76.6765 192.65 75.5858 191.256 74.7634C189.861 73.941 188.311 73.404 186.7 73.1847C185.088 72.9653 183.448 73.0682 181.878 73.4871" fill="#95D7BD"/>
<path d="M89.7104 74.9927C89.0571 74.8818 88.3872 74.9079 87.7449 75.0695C87.1025 75.231 86.5024 75.5243 85.9838 75.93C85.4653 76.3357 85.0402 76.8446 84.7365 77.4232C84.4328 78.0018 84.2573 78.637 84.2217 79.287C84.1861 79.937 84.2911 80.587 84.5299 81.1942C84.7686 81.8015 85.1357 82.3522 85.6069 82.8102C86.0781 83.2681 86.6428 83.6229 87.2638 83.8511C87.8847 84.0794 88.5479 84.1759 89.2096 84.1344C89.9094 84.1623 90.6067 84.0361 91.2504 83.7651C91.8941 83.4941 92.4679 83.0852 92.9297 82.5682C93.3916 82.0513 93.7297 81.4395 93.9195 80.7777C94.1092 80.1158 94.1458 79.4207 94.0264 78.7432C93.907 78.0657 93.6347 77.423 93.2294 76.8622C92.8242 76.3014 92.2963 75.8367 91.6844 75.5021C91.0725 75.1675 90.3921 74.9716 89.6931 74.9287C88.9941 74.8857 88.2941 74.9969 87.6445 75.2539" fill="#E2AF4C"/>
<path d="M404.918 21.8939C403.968 21.7807 403.005 21.8541 402.084 22.1097C401.164 22.3653 400.304 22.798 399.555 23.3828C398.807 23.9676 398.184 24.6927 397.724 25.5159C397.263 26.3391 396.974 27.244 396.873 28.1779C396.815 29.1248 396.961 30.073 397.302 30.9605C397.643 31.848 398.172 32.6546 398.853 33.3275C399.534 34.0004 400.352 34.5243 401.254 34.8649C402.156 35.2055 403.121 35.3551 404.086 35.3039C405.051 35.2526 405.994 35.0017 406.853 34.5676C407.712 34.1335 408.468 33.526 409.071 32.7849C409.674 32.0439 410.111 31.186 410.353 30.2676C410.595 29.3492 410.636 28.3909 410.474 27.4558C410.26 26.5406 409.861 25.677 409.299 24.9169C408.738 24.1569 408.026 23.5159 407.206 23.0324C406.386 22.5489 405.476 22.2329 404.528 22.1033C403.581 21.9737 402.617 22.0331 401.694 22.278" fill="#EAC689"/>
<path d="M52.3519 172.632C51.395 172.47 50.414 172.509 49.4731 172.744C48.5322 172.98 47.6526 173.408 46.8917 174C46.1308 174.593 45.5057 175.336 45.0574 176.181C44.6091 177.027 44.3476 177.956 44.29 178.908C44.2324 179.859 44.38 180.812 44.7231 181.704C45.0662 182.596 45.5972 183.406 46.2813 184.083C46.9654 184.759 47.7872 185.287 48.693 185.63C49.5989 185.974 50.5683 186.126 51.5381 186.076C52.512 186.036 53.4658 185.791 54.3352 185.358C55.2047 184.925 55.9696 184.315 56.5784 183.567C57.1873 182.82 57.626 181.953 57.865 181.026C58.104 180.098 58.1377 179.131 57.964 178.189C57.7902 177.247 57.4129 176.353 56.8576 175.567C56.3022 174.78 55.5816 174.12 54.7444 173.63C53.9072 173.14 52.9727 172.831 52.0038 172.725C51.035 172.62 50.0544 172.719 49.1279 173.016" fill="#1F2F6E"/>
<path d="M591.35 217.435C590.393 217.273 589.412 217.311 588.471 217.547C587.53 217.782 586.651 218.21 585.89 218.803C585.129 219.395 584.504 220.138 584.055 220.984C583.607 221.829 583.346 222.758 583.288 223.71C583.23 224.661 583.378 225.614 583.721 226.506C584.064 227.398 584.595 228.208 585.279 228.885C585.963 229.562 586.785 230.089 587.691 230.432C588.597 230.776 589.566 230.928 590.536 230.878C591.498 230.824 592.437 230.57 593.291 230.133C594.146 229.697 594.896 229.087 595.492 228.344C596.089 227.602 596.518 226.743 596.751 225.826C596.985 224.908 597.017 223.953 596.847 223.022C596.676 222.091 596.306 221.207 595.761 220.427C595.217 219.647 594.51 218.989 593.687 218.497C592.864 218.005 591.944 217.691 590.988 217.574C590.033 217.457 589.062 217.54 588.142 217.819" fill="#7EA1F4"/>
<path d="M228.449 146.517L205.292 137.658L196.268 160.391L219.425 169.25L228.449 146.517Z" fill="#CD6E95"/>
<path d="M488.771 60.8195L465.613 51.9607L456.589 74.694L479.747 83.5528L488.771 60.8195Z" fill="#5665C7"/>
<path d="M143.734 138.945L132.357 143.851L137.354 155.02L148.731 150.115L143.734 138.945Z" fill="#5665C7"/>
<path d="M149.935 338.259C138.306 337.475 112.999 331.314 101.12 325.307C98.6562 323.926 96.4665 322.12 94.6561 319.976C92.3867 317.717 91.3068 313.984 93.091 311.341C96.2211 306.732 104.187 309.297 108.742 305.979C113.296 302.66 111.762 295.07 107.474 291.352C103.186 287.634 97.3324 286.42 92.058 284.238C86.7837 282.057 82.0885 278.738 80.1478 273.683C78.2071 268.628 80.4295 261.868 85.7038 260.347C88.9435 259.41 92.5589 260.547 95.7203 259.379C101.182 257.382 101.981 249.5 98.694 244.752C95.4073 240.005 89.6948 237.639 84.3891 235.257C79.0835 232.876 73.4336 229.91 71.1016 224.687C68.7696 219.463 71.7589 211.735 77.581 211.688C82.9649 211.688 87.7854 217.834 92.731 215.699C98.1618 213.44 95.8612 205.543 93.2318 200.334C89.1043 191.878 86.9038 182.639 86.7837 173.263C86.7837 167.117 88.2079 159.926 93.7796 157.038C101.089 153.258 110.166 160.003 112.341 167.793C114.517 175.583 112.232 183.848 111.262 191.899C110.776 196.063 110.682 200.488 112.654 204.191C114.626 207.894 119.259 210.536 123.25 209.03C127.617 207.386 128.978 202.132 130.324 197.722C131.67 193.313 134.863 188.273 139.511 188.857C143.393 189.349 145.521 193.589 146.288 197.354C147.273 202.379 147.109 207.557 145.807 212.512C144.505 217.467 142.098 222.077 138.76 226.008C136.272 228.912 133.251 231.478 131.67 234.935C130.089 238.392 130.637 243.231 134.08 244.967C138.322 247.118 143.252 243.093 145.255 238.822C147.258 234.55 148.088 229.465 151.703 226.377C157.698 221.26 168.074 225.562 171.001 232.814C173.927 240.066 171.282 248.394 167.198 255.092C163.113 261.791 157.572 267.599 154.004 274.574C152.564 277.371 151.531 280.981 153.487 283.455C155.976 286.635 161.438 285.298 164.083 282.241C166.728 279.184 167.667 275.081 169.67 271.578C171.674 268.075 175.743 264.987 179.577 266.339C183.114 267.584 184.413 271.793 184.883 275.45C188.201 301.876 170.969 325.368 149.919 338.228" fill="url(#paint0_linear)"/>
<path d="M97.3324 182.327C98.0992 190.148 100.463 198.014 102.356 205.635C104.125 212.795 105.987 219.908 108.006 226.991C111.888 240.589 116.379 254.063 121.215 267.353C125.77 279.875 130.809 292.228 136.162 304.442C142.031 317.824 147.54 331.929 154.943 344.574C155.162 344.942 155.851 344.697 155.679 344.266C150.561 331.022 143.518 318.347 137.774 305.333C132.218 292.735 126.959 280.013 122.123 267.107C117.287 254.201 113.202 241.387 109.493 228.282C107.49 221.23 105.565 214.177 103.78 207.064C101.73 198.89 100.4 190.271 97.6923 182.281C97.6923 182.097 97.3011 182.112 97.3167 182.281L97.3324 182.327Z" fill="#202C43"/>
<path d="M127.773 280.95C136.115 269.627 144.629 258.549 154.082 248.086C154.52 247.594 153.785 246.857 153.331 247.349C143.762 257.776 134.965 268.861 127.006 280.52C126.693 280.981 127.445 281.396 127.773 280.95Z" fill="#202C43"/>
<path d="M128.337 282.041C125.206 279.214 121.169 279.475 117.209 278.968C109.902 278.033 102.864 275.655 96.5185 271.978C96.3774 271.896 96.2091 271.873 96.0506 271.913C95.8921 271.954 95.7564 272.054 95.6734 272.193C95.5904 272.331 95.5668 272.497 95.6079 272.652C95.649 272.808 95.7514 272.941 95.8925 273.022C100.572 275.902 105.716 277.98 111.105 279.168C116.458 280.382 123.25 279.429 127.851 282.564C128.227 282.81 128.665 282.256 128.337 281.949V282.041Z" fill="#202C43"/>
<path d="M145.881 324.631C134.997 319.724 123.364 316.609 111.449 315.412C111.339 315.421 111.236 315.467 111.156 315.542C111.076 315.617 111.025 315.716 111.01 315.824C110.995 315.931 111.019 316.04 111.076 316.133C111.133 316.226 111.22 316.297 111.324 316.334C122.965 318.657 134.461 321.632 145.756 325.245C146.116 325.368 146.382 324.769 146.022 324.615L145.881 324.631Z" fill="#202C43"/>
<path d="M145.553 323.448C153.268 309.881 163.332 299.526 174.913 289.155C175.289 288.817 174.788 288.156 174.35 288.448C161.829 296.837 151.75 309.958 144.833 323.033C144.582 323.494 145.286 323.909 145.553 323.448Z" fill="#202C43"/>
<path d="M109.243 232.2C103.288 228.155 96.5573 225.343 89.46 223.934C88.9279 223.826 88.6775 224.61 89.2252 224.748C96.1611 226.421 102.792 229.137 108.883 232.799C109.258 233.045 109.603 232.445 109.243 232.2Z" fill="#202C43"/>
<path d="M109.196 232.722C116.085 228.857 122.404 224.086 127.977 218.541C128.399 218.111 127.773 217.542 127.319 217.896C121.215 222.781 115.816 228.313 108.93 232.276C108.88 232.316 108.847 232.371 108.835 232.433C108.824 232.494 108.835 232.558 108.868 232.612C108.9 232.665 108.951 232.706 109.011 232.727C109.071 232.747 109.137 232.745 109.196 232.722Z" fill="#202C43"/>
<path d="M536.823 235.38C519.294 237.623 506.789 248.731 494.691 261.392C482.538 274.225 475.249 290.77 474.047 308.252C473.875 310.741 473.922 313.446 475.503 315.381C478.023 318.454 482.874 317.901 486.724 316.795C499.901 312.821 511.809 305.573 521.294 295.753C530.779 285.933 537.519 273.875 540.861 260.746C542.958 252.065 543.114 241.848 536.823 235.38Z" fill="#7EA1F4"/>
<path d="M525.523 260.347C513.253 274.605 501.264 289.109 489.244 303.597C477.647 317.578 465.392 331.253 454.484 345.741C454.061 346.294 454.985 346.986 455.454 346.479C467.85 332.804 479.102 317.993 490.841 303.751C502.579 289.508 514.395 275.204 525.898 260.731C526.102 260.485 525.742 260.116 525.523 260.377V260.347Z" fill="#202C43"/>
<path d="M505.631 271.532C505.286 275.926 503.956 280.874 504.629 285.252C504.629 285.698 505.38 285.636 505.49 285.252C506.789 281.012 506.147 275.911 506.413 271.532C506.413 271.04 505.662 271.04 505.631 271.532Z" fill="#202C43"/>
<path d="M494.8 298.558C500.33 296.805 505.731 294.685 510.968 292.212C511.985 291.782 511.093 290.323 510.091 290.753C504.719 292.744 499.49 295.089 494.44 297.774C494.349 297.828 494.28 297.912 494.247 298.011C494.214 298.111 494.219 298.219 494.261 298.315C494.304 298.411 494.38 298.488 494.476 298.533C494.573 298.578 494.682 298.587 494.785 298.558H494.8Z" fill="#202C43"/>
<path d="M459.962 249.515C459.962 249.515 478.101 252.419 476.661 259.64C475.221 266.861 471.637 334.172 471.637 334.172H429.849L459.962 249.515Z" fill="#D0D5DD"/>
<path d="M331.108 249.223C331.108 249.223 349.169 199.812 380.581 201.871H415.779C415.779 201.871 441.494 205.589 455.438 225.117L444.483 264.157L444.029 338.766L357.809 338.182L357.699 264.618L331.108 249.223Z" fill="#5665C7"/>
<path d="M386.293 201.871C386.293 201.871 375.494 236.901 390.66 278.553C390.66 278.553 421.492 213.701 432.729 207.217C432.729 207.217 418.456 199.351 386.293 201.871Z" fill="#FFFFFD"/>
<path d="M305.191 222.889C305.191 222.889 304.799 212.134 304.799 211.35C304.799 210.567 312.625 205.788 310.903 205.205C309.182 204.621 304.455 206.833 304.455 206.833C304.455 206.833 304.768 194.127 302.812 194.834C300.855 195.54 301.247 202.378 301.247 202.378C301.247 202.378 300.245 191.469 298.602 192.314C296.958 193.159 298.414 201.932 298.414 201.932C298.414 201.932 296.849 194.019 295.049 193.205C293.249 192.391 294.939 202.086 294.939 202.086C294.939 202.086 292.326 194.296 291.199 194.066C290.072 193.835 289.884 224.164 289.884 224.164L305.191 222.889Z" fill="#E5BB91"/>
<path d="M302.749 204.636C301.517 205.088 300.389 205.778 299.432 206.664C298.475 207.551 297.708 208.617 297.177 209.798C297.177 209.798 297.177 209.322 297.412 208.646C297.78 207.75 298.341 206.942 299.057 206.279C299.773 205.616 300.627 205.113 301.56 204.805C302.28 204.59 302.749 204.575 302.749 204.636Z" fill="#D88773"/>
<path d="M334.442 242.663C334.442 242.663 318.056 275.726 313.267 277.493C308.477 279.26 306.02 213.64 306.02 213.64L287.756 215.683C287.756 215.683 275.016 319.054 315.254 311.617C320.076 310.661 324.5 308.318 327.963 304.888C335.444 297.667 352.315 279.614 369.437 249.3L334.442 242.663Z" fill="#5665C7"/>
<path d="M360.203 263.358C360.203 263.358 359.499 263.128 358.497 262.283C357.065 261.057 355.927 259.535 355.164 257.827C353.944 255.201 353.631 252.255 354.272 249.438C355.121 245.84 357.367 242.709 360.532 240.711L360.172 241.372C360.047 238.56 359.922 235.534 359.969 232.399C359.948 227.791 360.564 223.201 361.8 218.756C362.872 215.116 364.653 211.714 367.043 208.738C368.651 206.729 370.625 205.031 372.865 203.73C373.661 203.212 374.555 202.857 375.494 202.685C375.494 202.808 374.665 203.253 373.209 204.221C371.186 205.66 369.406 207.402 367.935 209.384C365.779 212.323 364.188 215.624 363.24 219.125C362.11 223.456 361.558 227.913 361.596 232.384C361.596 235.457 361.596 238.53 361.737 241.295V241.725L361.346 241.956C358.496 243.731 356.442 246.506 355.602 249.715C354.955 252.265 355.13 254.949 356.103 257.397C356.746 259.04 357.696 260.551 358.904 261.852C359.718 262.836 360.266 263.266 360.203 263.358Z" fill="#4B5BAD"/>
<path d="M405.262 108.687C407.582 107.13 410.26 106.165 413.055 105.88C415.85 105.594 418.673 105.998 421.27 107.053C423.866 108.109 426.153 109.783 427.925 111.925C429.696 114.066 430.895 116.608 431.414 119.319C432.745 126.248 429.646 134.038 433.246 140.137C436.454 145.592 444.405 148.357 444.968 154.626C445.328 158.743 442.151 162.431 441.932 166.564C441.525 174.138 450.978 179.869 450.008 187.398C449.709 189.031 449.03 190.575 448.022 191.907C447.015 193.24 445.707 194.326 444.201 195.08C441.187 196.548 437.903 197.405 434.545 197.599C430.209 198.06 425.483 198.045 422.024 195.541C418.753 193.221 417.204 189.241 415.951 185.477C407.693 160.658 404.269 134.535 405.857 108.472" fill="#1F2F6E"/>
<path d="M405.778 108.471C401.537 104 397.499 103.386 393.258 103.14C389.016 103.151 384.836 104.135 381.05 106.013C377.273 107.88 373.293 109.323 369.187 110.315C366.057 110.883 362.629 110.761 359.624 111.974C357.883 112.739 356.321 113.848 355.034 115.23C353.747 116.612 352.763 118.239 352.143 120.01C350.91 123.565 350.556 127.356 351.11 131.072C351.58 134.975 352.675 138.892 351.971 142.749C351.142 147.358 347.902 151.215 345.179 155.04C342.455 158.866 340.108 163.675 341.36 168.238C342.612 172.801 347.37 176.151 347.917 180.898C348.309 184.294 346.352 187.566 346.352 190.977C346.18 195.832 349.764 200.196 354.178 202.301C358.799 204.123 363.878 204.515 368.733 203.422C376.374 201.958 383.503 198.592 389.439 193.648C395.375 188.703 399.918 182.345 402.633 175.183C406.295 165.165 406.138 154.211 405.105 143.609C404.072 133.008 402.21 122.437 402.648 111.805" fill="#1F2F6E"/>
<path d="M421.711 160.049L420.005 206.879C411.115 212.441 400.895 213.194 388.703 206.879V160.787L421.711 160.049Z" fill="#E7BC90"/>
<path d="M363.646 115.877C363.646 115.877 363.396 159.312 364.679 169.959C366.244 183.218 377.529 191.469 388.156 191.285C401.287 191.023 416.171 186.552 420.13 173.769C424.09 160.986 419.191 115.877 419.191 115.877H363.646Z" fill="#E7BC90"/>
<path d="M420.615 151.584C420.991 145.637 420.787 139.669 420.005 133.761C419.661 131.18 420.005 126.294 418.44 124.22C416.28 121.362 412.524 120.179 408.956 119.611C400.269 118.074 391.38 119.242 382.568 119.411C373.757 119.58 364.992 120.763 357.699 115.908L407.782 107.396L422.478 112.005L425.608 145.807L420.615 151.584Z" fill="#1F2F6E"/>
<path d="M420.615 144.424C420.615 144.424 434.357 141.351 434.701 154.887C435.045 168.423 420.615 168.069 420.615 168.069V144.424Z" fill="#E7BC90"/>
<path d="M426.312 150.815C427.517 151.231 428.529 152.06 429.161 153.15C429.794 154.239 430.005 155.516 429.755 156.746C429.349 158.943 427.236 161.57 424.763 161.171C424.569 161.118 424.393 161.016 424.251 160.876C424.11 160.735 424.008 160.561 423.956 160.37C423.904 160.18 423.903 159.979 423.954 159.788C424.005 159.597 424.106 159.422 424.246 159.281C425.295 158.267 426.61 158.067 427.11 156.5C427.278 155.702 427.221 154.874 426.945 154.105C426.669 153.336 426.185 152.656 425.545 152.137C425.427 152.011 425.352 151.852 425.333 151.681C425.314 151.511 425.351 151.34 425.438 151.192C425.526 151.044 425.66 150.927 425.82 150.859C425.98 150.792 426.158 150.776 426.328 150.815H426.312Z" fill="#D88773"/>
<path d="M415.232 115.017C412.508 115.017 410.708 117.659 408.971 119.626C406.84 122.003 404.176 123.863 401.189 125.057C398.201 126.252 394.972 126.749 391.755 126.509C389.236 126.294 386.778 125.633 384.243 125.449C381.708 125.13 379.145 125.785 377.091 127.277C374.399 129.551 373.851 133.715 370.83 135.681C368.655 137.126 363.787 141.197 361.252 140.598C359.873 140.191 358.623 139.444 357.623 138.427C356.622 137.41 355.905 136.158 355.539 134.79C355.336 133.699 357.574 113.373 357.574 113.373L371.409 112.481L415.232 115.017Z" fill="#1F2F6E"/>
<path d="M413.635 180.668C410.624 184.579 406.651 187.676 402.087 189.667C397.524 191.658 392.52 192.479 387.545 192.053C386.81 192.053 386.778 190.885 387.545 190.916C392.371 191.1 397.18 190.257 401.642 188.446C406.105 186.635 410.116 183.898 413.4 180.422C413.51 180.299 413.745 180.422 413.635 180.606V180.668Z" fill="#D88773"/>
<path d="M384.368 147.62C384.998 149.953 384.944 152.413 384.212 154.718C383.759 155.775 383.236 156.801 382.647 157.791C380.784 161.586 381.551 163.414 384.102 166.41C384.666 167.071 383.711 168.039 383.116 167.363C381.301 165.35 379.469 162.753 380.158 159.942C380.576 158.793 381.155 157.707 381.88 156.715C383.56 154.046 384.148 150.851 383.523 147.773C383.429 147.251 384.243 147.005 384.368 147.558V147.62Z" fill="#0C112C"/>
<path d="M395.512 171.142C394.04 172.848 392.507 174.814 390.175 175.306C389.345 175.581 388.444 175.562 387.628 175.25C386.813 174.938 386.135 174.354 385.714 173.6C385.511 173.14 386.137 172.817 386.497 173.001C387.187 173.481 387.993 173.778 388.835 173.861C389.677 173.944 390.527 173.812 391.301 173.478C392.68 172.705 393.879 171.658 394.823 170.405C395.23 169.928 395.903 170.604 395.512 171.081V171.142Z" fill="#0C112C"/>
<path d="M372.395 148.925C372.134 148.925 371.883 148.823 371.698 148.642C371.513 148.46 371.409 148.214 371.409 147.957C371.409 147.701 371.513 147.455 371.698 147.273C371.883 147.091 372.134 146.99 372.395 146.99C372.657 146.99 372.908 147.091 373.092 147.273C373.277 147.455 373.381 147.701 373.381 147.957C373.381 148.214 373.277 148.46 373.092 148.642C372.908 148.823 372.657 148.925 372.395 148.925Z" fill="#0C112C"/>
<path d="M397.687 149.033C397.425 149.033 397.175 148.931 396.99 148.75C396.805 148.568 396.701 148.322 396.701 148.065C396.701 147.808 396.805 147.562 396.99 147.381C397.175 147.199 397.425 147.097 397.687 147.097C397.948 147.097 398.199 147.199 398.384 147.381C398.569 147.562 398.673 147.808 398.673 148.065C398.673 148.322 398.569 148.568 398.384 148.75C398.199 148.931 397.948 149.033 397.687 149.033Z" fill="#0C112C"/>
<g opacity="0.22">
<path opacity="0.22" d="M395.136 159.65C394.885 162.262 398 164.674 402.101 164.72C406.201 164.766 409.378 162.4 409.175 159.788C408.971 157.176 405.857 155.271 402.194 155.179C398.532 155.086 395.402 157.038 395.136 159.65Z" fill="#D88773"/>
</g>
<g opacity="0.22">
<path opacity="0.22" d="M365.446 159.496C365.372 160.129 365.441 160.77 365.649 161.373C365.858 161.976 366.2 162.526 366.651 162.984C367.156 163.475 367.755 163.864 368.413 164.127C369.071 164.391 369.775 164.524 370.486 164.52C371.205 164.537 371.921 164.409 372.588 164.145C373.255 163.881 373.861 163.486 374.367 162.984C374.833 162.542 375.191 162.004 375.416 161.408C375.641 160.812 375.726 160.175 375.666 159.542C375.549 158.284 374.944 157.118 373.976 156.285C373.049 155.47 371.848 155.019 370.603 155.019C369.359 155.019 368.158 155.47 367.231 156.285C366.241 157.093 365.603 158.242 365.446 159.496Z" fill="#D88773"/>
</g>
<path d="M404.855 121.485C404.627 121.856 404.449 122.253 404.323 122.668C403.919 123.785 403.625 124.937 403.446 126.109C402.859 130.019 403.441 134.011 405.121 137.602C406.018 139.603 407.323 141.401 408.956 142.887C410.296 144.102 411.945 144.94 413.729 145.315C414.918 145.586 416.155 145.586 417.344 145.315C417.667 145.235 417.981 145.127 418.283 144.992C418.39 144.956 418.49 144.904 418.581 144.838C418.581 144.838 418.127 144.977 417.313 145.13C416.144 145.336 414.945 145.299 413.792 145.023C412.092 144.617 410.528 143.786 409.253 142.611C407.693 141.159 406.438 139.42 405.559 137.494C403.905 133.95 403.293 130.023 403.791 126.156C404.029 124.575 404.385 123.014 404.855 121.485Z" fill="#1F2F6E"/>
<path d="M345.695 164.797L345.961 164.689C346.133 164.597 346.399 164.474 346.712 164.29C347.65 163.72 348.507 163.033 349.263 162.246C350.453 160.998 351.388 159.538 352.018 157.944C352.87 155.816 353.119 153.501 352.738 151.245C352.111 148.578 351.054 146.026 349.608 143.686C348.809 142.376 348.088 141.022 347.448 139.63C345.525 134.937 345.464 129.707 347.276 124.972C347.91 123.275 348.866 121.711 350.093 120.363C351.343 119.004 352.978 118.041 354.788 117.598C358.513 116.753 362.426 117.598 366.041 116.491C367.767 115.912 369.361 115.009 370.736 113.833C372.041 112.716 373.279 111.526 374.446 110.269C375.55 109.09 376.715 107.967 377.936 106.904C379.144 105.939 380.468 105.123 381.88 104.477C384.308 103.218 386.969 102.45 389.705 102.218C391.97 102.031 394.251 102.223 396.451 102.787C398.111 103.213 399.713 103.832 401.224 104.63C402.182 105.137 403.098 105.718 403.963 106.366C404.276 106.582 404.479 106.766 404.636 106.873L404.871 107.042L404.667 106.843C404.526 106.72 404.323 106.52 404.026 106.29C403.179 105.608 402.273 105.001 401.318 104.477C399.81 103.627 398.194 102.976 396.513 102.541C394.288 101.941 391.975 101.718 389.674 101.88C386.877 102.096 384.153 102.858 381.661 104.123C380.269 104.82 378.966 105.676 377.779 106.674C376.539 107.737 375.358 108.865 374.242 110.054C373.086 111.29 371.858 112.46 370.564 113.557C369.232 114.697 367.685 115.569 366.01 116.123C362.551 117.183 358.67 116.338 354.788 117.214C352.868 117.665 351.133 118.678 349.811 120.117C348.543 121.499 347.555 123.105 346.9 124.85C345.64 128.137 345.263 131.687 345.805 135.159C346.062 136.74 346.503 138.286 347.119 139.768C347.741 141.165 348.435 142.529 349.201 143.855C350.642 146.154 351.698 148.665 352.331 151.291C352.71 153.485 352.488 155.739 351.689 157.821C351.097 159.404 350.199 160.859 349.044 162.108C348.077 163.169 346.947 164.076 345.695 164.797Z" fill="#1F2F6E"/>
<path d="M345.679 158.651C345.52 158.724 345.368 158.811 345.225 158.912C344.806 159.194 344.417 159.518 344.067 159.88C342.788 161.248 342.007 162.993 341.845 164.843C341.713 166.125 341.912 167.42 342.424 168.607C343.091 169.896 343.839 171.142 344.662 172.341C345.112 172.964 345.421 173.674 345.57 174.424C345.718 175.173 345.702 175.946 345.523 176.689C344.898 178.256 344.026 179.718 342.94 181.021C341.895 182.445 341.252 184.115 341.078 185.861C340.935 187.48 341.127 189.11 341.641 190.655C342.561 193.253 344.278 195.507 346.556 197.108C348.051 198.196 349.709 199.051 351.47 199.643C351.947 199.812 352.433 199.955 352.926 200.073C353.091 200.135 353.265 200.171 353.442 200.181C353.442 200.181 352.754 199.95 351.533 199.474C349.827 198.817 348.22 197.933 346.759 196.847C344.577 195.252 342.94 193.045 342.064 190.517C341.56 189.033 341.379 187.463 341.532 185.907C341.709 184.245 342.324 182.656 343.316 181.298C344.434 179.96 345.327 178.456 345.961 176.842C346.188 176.017 346.188 175.148 345.961 174.323C345.747 173.548 345.42 172.808 344.991 172.126C344.159 170.953 343.401 169.732 342.721 168.469C342.228 167.341 342.024 166.112 342.127 164.889C342.248 163.095 342.956 161.387 344.146 160.019C344.632 159.536 345.144 159.08 345.679 158.651Z" fill="#1F2F6E"/>
<path d="M421.664 143.487C420.987 144.138 420.159 144.618 419.251 144.885C418.343 145.153 417.383 145.2 416.452 145.023C414.604 144.617 412.902 143.731 411.522 142.457C405.403 137.203 403.619 128.629 403.697 120.563C403.594 119.088 403.914 117.614 404.62 116.307C405.184 115.577 405.91 114.981 406.742 114.566C407.574 114.151 408.492 113.927 409.425 113.91C411.422 113.861 413.402 114.286 415.195 115.15C416.988 116.014 418.542 117.292 419.723 118.873C422.055 122.07 423.383 125.868 423.542 129.797C423.675 133.704 423.424 137.614 422.791 141.474" fill="#1F2F6E"/>
<path d="M391.27 337.644C390.816 337.644 390.159 324.323 389.783 307.868C389.408 291.413 389.455 278.062 389.893 278.046C390.331 278.031 391.004 291.367 391.38 307.838C391.755 324.308 391.755 337.629 391.27 337.644Z" fill="#4B5BAD"/>
<path d="M445.923 215.191C445.923 215.191 456.471 217.219 459.633 234.381C460.517 239.381 460.628 244.483 459.962 249.515L456.393 278.554L420.694 258.334C420.694 258.334 420.506 216.636 445.923 215.191Z" fill="#5665C7"/>
<path d="M394.885 298.527C394.885 298.527 385.26 295.07 384.478 294.732C383.695 294.394 382.459 285.513 381.207 286.758C379.955 288.002 380.111 293.196 380.111 293.196C380.111 293.196 368.389 287.757 368.248 289.815C368.107 291.874 374.665 294.225 374.665 294.225C374.665 294.225 364.1 290.707 364.21 292.519C364.319 294.332 373.1 296.591 373.1 296.591C373.1 296.591 365.055 294.87 363.6 296.084C362.144 297.298 371.832 299.771 371.832 299.771C371.832 299.771 363.521 298.957 362.848 299.879C362.175 300.801 390.801 311.986 390.801 311.986L394.885 298.527Z" fill="#E5BB91"/>
<path d="M389.955 296.745C389.955 296.745 422.54 305.041 422.822 303.505C423.104 301.969 424.544 290.353 426.078 272.776L426.657 258.595C426.657 258.595 420.208 207.432 454.828 223.565C454.828 223.565 460.697 238.422 457.144 268.843C456.252 283.439 452.856 318.869 444.123 327.135C444.123 327.135 441.697 330.131 435.139 329.271C428.879 328.456 385.057 309.62 385.057 309.62L389.955 296.745Z" fill="#5665C7"/>
<path d="M389.955 296.745C390.767 296.754 391.576 296.852 392.366 297.037C393.931 297.282 396.2 297.682 399.096 298.22C404.886 299.295 413.181 300.878 423.01 302.829L422.18 303.474C422.306 298.742 422.447 293.58 422.603 288.11C422.681 285.375 422.775 282.579 422.869 279.706C422.869 278.262 422.947 276.817 422.994 275.342C423.041 273.867 423.151 272.392 423.276 270.902C423.996 261.853 425.013 253.279 425.921 245.474C426.406 241.603 426.719 237.869 427.486 234.397C428.097 231.149 429.217 228.013 430.804 225.101C432.131 222.681 433.959 220.562 436.172 218.879C437.831 217.603 439.722 216.649 441.744 216.067C443.015 215.708 444.335 215.548 445.657 215.591C446.12 215.58 446.582 215.653 447.018 215.806C445.288 215.877 443.574 216.161 441.916 216.651C440.027 217.315 438.272 218.303 436.736 219.57C434.686 221.238 433.003 223.297 431.79 225.624C430.345 228.47 429.333 231.508 428.785 234.643C428.143 238.007 427.877 241.741 427.423 245.643C426.594 253.433 425.639 262.022 424.919 271.025C424.794 272.5 424.7 273.96 424.638 275.404C424.575 276.848 424.528 278.292 424.497 279.737C424.387 282.61 424.293 285.406 424.199 288.141C423.98 293.61 423.793 298.757 423.605 303.505V304.319L422.806 304.15C412.946 302.045 404.745 300.263 399.002 298.973C396.138 298.327 393.884 297.789 392.35 297.436C391.525 297.306 390.721 297.074 389.955 296.745Z" fill="#4B5BAD"/>
<path d="M443.591 324.984C443.669 324.984 443.34 325.906 442.135 327.074C440.359 328.663 438.121 329.667 435.734 329.947C432.245 330.255 428.728 329.853 425.405 328.764C421.68 327.734 417.579 326.444 413.479 324.846C406.366 322.175 399.519 318.868 393.023 314.966C388.03 311.97 385.198 309.743 385.323 309.589C385.448 309.435 388.453 311.279 393.586 314.014C400.187 317.597 407.026 320.738 414.058 323.417C418.174 324.953 422.149 326.305 425.811 327.396C428.941 328.52 432.262 329.042 435.593 328.933C437.811 328.758 439.935 327.981 441.728 326.689C442.918 325.721 443.481 324.907 443.591 324.984Z" fill="#4B5BAD"/>
<path d="M390.66 278.553C390.66 278.553 416.844 256.613 415.967 254.478C415.163 252.867 414.059 251.418 412.712 250.206C412.712 250.206 417.407 251.743 418.456 248.286C419.504 244.829 432.729 207.217 432.729 207.217C432.729 207.217 411.006 228.743 390.66 278.553Z" fill="#4B5BAD"/>
<path d="M386.293 201.871C386.293 201.871 368.952 229.787 373.397 236.978L377.278 239.959C377.278 239.959 371.926 242.171 372.677 242.893C373.428 243.615 385.072 271.593 389.893 278.046C389.94 278.093 379.782 225.055 386.293 201.871Z" fill="#4B5BAD"/>
<path d="M388.75 206.879V197.815L420.381 196.785L421.711 206.879C421.711 206.879 417.986 214.562 410.552 215.775C403.118 216.989 388.75 206.879 388.75 206.879Z" fill="#FFFFFD"/>
<path d="M420.897 203.73C420.975 203.73 420.897 204.483 420.068 205.573C418.922 207.095 417.309 208.215 415.466 208.769C414.18 209.179 412.817 209.305 411.475 209.138C409.913 208.927 408.443 208.288 407.234 207.294C405.895 206.208 404.874 204.793 404.276 203.192C403.607 201.464 403.497 199.575 403.963 197.784C403.956 197.692 403.956 197.599 403.963 197.507C404.008 197.307 404.131 197.132 404.306 197.02C404.481 196.908 404.694 196.867 404.899 196.908C405.104 196.948 405.285 197.065 405.402 197.235C405.52 197.404 405.565 197.613 405.528 197.814C405.108 201.237 403.359 204.369 400.645 206.557C399.506 207.439 398.162 208.028 396.732 208.273C395.303 208.517 393.835 208.408 392.46 207.955C391.557 207.615 390.738 207.091 390.055 206.419C389.373 205.746 388.843 204.94 388.5 204.052C388.077 202.792 388.265 202.055 388.343 202.055C388.422 202.055 388.516 202.762 389.079 203.822C389.89 205.276 391.232 206.374 392.835 206.895C394.029 207.206 395.282 207.228 396.486 206.961C397.691 206.693 398.812 206.143 399.753 205.358C402.094 203.348 403.589 200.555 403.947 197.523L405.512 197.876V198.091C405.18 199.538 405.253 201.047 405.724 202.456C406.195 203.866 407.047 205.124 408.189 206.096C409.179 206.956 410.392 207.53 411.694 207.755C412.85 207.936 414.032 207.889 415.169 207.617C416.854 207.196 418.388 206.324 419.598 205.097C420.443 204.344 420.772 203.668 420.897 203.73Z" fill="#EDEDE6"/>
<path d="M402.883 203.684C403.118 203.684 402.163 207.893 400.708 214.592C399.252 221.291 397.327 230.556 395.574 240.865C393.821 251.174 392.585 260.547 391.755 267.353C390.926 274.159 390.441 278.369 390.19 278.354C390.056 277.359 390.056 276.352 390.19 275.358C390.19 273.437 390.409 270.672 390.691 267.245C391.223 260.393 392.256 250.959 394.056 240.604C395.856 230.248 397.922 220.984 399.675 214.331C400.535 211.012 401.24 208.339 401.897 206.495C402.102 205.52 402.433 204.575 402.883 203.684Z" fill="#EDEDE6"/>
<path d="M438.645 154.395C438.645 161.939 433.058 168.054 426.124 168.054C419.191 168.054 413.604 161.908 413.604 154.395C413.604 146.882 419.191 140.721 426.124 140.721C433.058 140.721 438.645 146.836 438.645 154.395Z" fill="#5665C7"/>
<path d="M428.832 141.043C428.832 141.043 432.651 99.7598 403.227 106.213C403.227 106.213 422.008 108.533 420.788 147.312C419.567 186.091 420.615 148.034 420.615 148.034L428.832 141.043Z" fill="#5665C7"/>
<path d="M398.751 175.152C410.161 172.817 421.288 164.935 428.143 155.839C428.66 155.163 427.517 154.303 426.954 154.933C418.847 164.151 409.973 169.698 398.485 174.246C398.378 174.293 398.292 174.376 398.243 174.48C398.194 174.584 398.184 174.702 398.217 174.813C398.249 174.923 398.321 175.018 398.419 175.081C398.518 175.143 398.635 175.168 398.751 175.152Z" fill="#5665C7"/>
<path d="M446.048 180.437C446.048 180.437 446.048 180.437 445.829 180.437C445.617 180.401 445.407 180.35 445.203 180.284C444.414 180.004 443.682 179.588 443.043 179.055C442.022 178.205 441.236 177.117 440.758 175.89C440.079 174.26 440.046 172.441 440.664 170.789C442.041 167.024 446.924 164.92 448.192 160.034C448.927 157.553 448.794 154.903 447.817 152.505C446.772 149.927 444.839 147.79 442.354 146.467C441.087 145.806 439.709 145.361 438.379 144.792C437.012 144.292 435.792 143.469 434.826 142.396C433.967 141.247 433.512 139.856 433.527 138.432C433.527 137.095 433.527 135.82 433.621 134.575C433.753 130.16 433.316 125.746 432.322 121.439C431.946 119.791 431.373 118.192 430.616 116.676C430.045 115.539 429.289 114.501 428.378 113.603C427.596 112.848 426.691 112.225 425.702 111.759C425.702 111.759 425.702 111.759 425.921 111.759L426.516 111.99C427.272 112.346 427.968 112.812 428.582 113.373C429.532 114.262 430.326 115.3 430.929 116.445C431.716 118.014 432.31 119.67 432.698 121.377C433.749 125.708 434.223 130.155 434.106 134.606C434.106 135.866 433.966 137.141 434.106 138.416C434.114 139.709 434.548 140.965 435.343 141.996C436.26 143.003 437.416 143.773 438.708 144.239C440.007 144.792 441.384 145.238 442.714 145.929C445.31 147.305 447.327 149.536 448.411 152.229C449.132 154.06 449.398 156.034 449.189 157.987C448.979 159.94 448.3 161.816 447.206 163.46C446.527 164.415 445.756 165.305 444.905 166.118C443.334 167.456 442.047 169.085 441.118 170.912C440.513 172.481 440.513 174.213 441.118 175.782C441.571 176.957 442.3 178.01 443.246 178.855C444.056 179.571 445.011 180.11 446.048 180.437Z" fill="#1F2F6E"/>
<path d="M296.035 151.353C290.388 151.363 284.901 149.513 280.451 146.099C276.002 142.685 272.848 137.905 271.495 132.523C270.141 127.141 270.666 121.468 272.985 116.414C275.305 111.359 279.284 107.215 284.287 104.644C289.29 102.073 295.028 101.224 300.58 102.233C306.133 103.242 311.181 106.05 314.915 110.209C318.649 114.368 320.853 119.636 321.176 125.171C321.499 130.706 319.921 136.187 316.694 140.736L321.953 150.57L309.698 147.358C305.634 149.961 300.887 151.349 296.035 151.353ZM296.035 103.432C292.35 103.439 288.717 104.292 285.427 105.922C282.137 107.553 279.281 109.917 277.088 112.824C274.894 115.731 273.424 119.102 272.794 122.667C272.164 126.232 272.392 129.892 273.46 133.354C274.528 136.817 276.406 139.987 278.944 142.61C281.483 145.233 284.611 147.237 288.078 148.462C291.546 149.687 295.258 150.099 298.917 149.664C302.575 149.23 306.08 147.961 309.15 145.96L314.628 142.35L311.028 146.191L318.854 148.265L315.035 141.105L315.505 140.859L314.988 140.398C317.568 136.947 319.122 132.861 319.48 128.595C319.838 124.328 318.985 120.048 317.015 116.229C315.046 112.409 312.037 109.2 308.322 106.958C304.608 104.715 300.333 103.527 295.972 103.524L296.035 103.432Z" fill="#1F2F6E"/>
<path d="M104.97 334.172H486.411C486.411 334.172 472.075 370.216 302.749 371.046C132.39 371.814 104.97 334.172 104.97 334.172Z" fill="#EDF1F7"/>
<path d="M284.892 336.861V334.172H349.029V337.644L284.892 336.861Z" fill="#8E8585"/>
<path d="M163.864 231.723L179.311 318.239H306.928L292.795 231.723H163.864Z" fill="#B6AEAD"/>
<path d="M217.64 286.635L223.008 335.754H252.103L242.259 286.635H220.332" fill="#8E8585"/>
<path d="M268.959 334.172H206.137V336.876H268.959V334.172Z" fill="#8E8585"/>
<path d="M248.519 238.238H202.631V239.959H248.519V238.238Z" fill="#8E8585"/>
<path d="M23.6327 127.062C22.8106 127.014 21.9868 127.125 21.2084 127.389C20.43 127.653 19.7122 128.065 19.096 128.601C18.4798 129.138 17.9772 129.788 17.617 130.515C17.2569 131.242 17.0461 132.032 16.9968 132.839C16.9474 133.646 17.0605 134.455 17.3296 135.219C17.5986 135.983 18.0183 136.688 18.5648 137.293C19.1112 137.898 19.7737 138.391 20.5143 138.745C21.255 139.098 22.0593 139.305 22.8815 139.353C23.7801 139.325 24.6621 139.108 25.4674 138.715C26.2727 138.322 26.9824 137.764 27.5482 137.078C28.114 136.392 28.5226 135.595 28.7463 134.74C28.97 133.885 29.0034 132.993 28.8444 132.124C28.6853 131.255 28.3375 130.43 27.8246 129.705C27.3117 128.98 26.6458 128.372 25.8721 127.922C25.0984 127.473 24.2351 127.192 23.3409 127.099C22.4468 127.006 21.5427 127.104 20.6904 127.385" fill="#EAC689"/>
</g>
<defs>
<linearGradient id="paint0_linear" x1="70.2878" y1="247.103" x2="185.306" y2="247.103" gradientUnits="userSpaceOnUse">
<stop stop-color="#AEF6BF"/>
<stop offset="1" stop-color="#8ED3BB"/>
</linearGradient>
<clipPath id="clip0">
<rect width="597" height="371" fill="white"/>
</clipPath>
</defs>
</svg>
