<svg width="237" height="241" viewBox="0 0 237 241" fill="none" xmlns="http://www.w3.org/2000/svg">
<path d="M65.175 168.7C60.4608 168.7 55.9396 166.796 52.6062 163.406C49.2727 160.016 47.4 155.419 47.4 150.625V90.3752C47.4 85.5814 49.2727 80.984 52.6062 77.5943C55.9396 74.2046 60.4608 72.3002 65.175 72.3002H171.825C176.539 72.3002 181.06 74.2046 184.394 77.5943C187.727 80.984 189.6 85.5814 189.6 90.3752V150.625C189.6 155.419 187.727 160.016 184.394 163.406C181.06 166.796 176.539 168.7 171.825 168.7H65.175ZM65.175 84.3502C63.6036 84.3502 62.0965 84.985 60.9854 86.1149C59.8742 87.2448 59.25 88.7773 59.25 90.3752V108.45H177.75V90.3752C177.75 88.7773 177.126 87.2448 176.015 86.1149C174.903 84.985 173.396 84.3502 171.825 84.3502H65.175ZM82.95 120.5H59.25V150.625C59.25 152.223 59.8742 153.756 60.9854 154.886C62.0965 156.015 63.6036 156.65 65.175 156.65H82.95V120.5ZM94.8 156.65H171.825C173.396 156.65 174.903 156.015 176.015 154.886C177.126 153.756 177.75 152.223 177.75 150.625V120.5H94.8V156.65Z" fill="white"/>
<path d="M23.7 78.3252C23.7 70.3355 26.8212 62.6731 32.377 57.0236C37.9327 51.3741 45.468 48.2002 53.325 48.2002H183.675C191.532 48.2002 199.067 51.3741 204.623 57.0236C210.179 62.6731 213.3 70.3355 213.3 78.3252V162.675C213.3 170.665 210.179 178.327 204.623 183.977C199.067 189.626 191.532 192.8 183.675 192.8H53.325C45.468 192.8 37.9327 189.626 32.377 183.977C26.8212 178.327 23.7 170.665 23.7 162.675V78.3252ZM53.325 60.2502C48.6108 60.2502 44.0896 62.1545 40.7562 65.5442C37.4227 68.934 35.55 73.5314 35.55 78.3252V162.675C35.55 167.469 37.4227 172.066 40.7562 175.456C44.0896 178.846 48.6108 180.75 53.325 180.75H183.675C188.389 180.75 192.91 178.846 196.244 175.456C199.577 172.066 201.45 167.469 201.45 162.675V78.3252C201.45 73.5314 199.577 68.934 196.244 65.5442C192.91 62.1545 188.389 60.2502 183.675 60.2502H53.325Z" fill="white"/>
</svg>
