<svg width="200" height="52" viewBox="0 0 200 52" fill="none" xmlns="http://www.w3.org/2000/svg">
<path fill-rule="evenodd" clip-rule="evenodd" d="M41.2651 41.2161C38.579 43.9403 35.2228 45.9092 31.5342 46.9247C27.8456 47.9401 23.9547 47.9664 20.2527 47.0007C16.5508 46.0351 13.1684 44.1116 10.4457 41.4238C7.72312 38.736 5.75628 35.3787 4.74307 31.6895L10.2887 25.51L21.8356 42.5035H27.1832L13.4577 22.044L25.2224 8.97208H21.0631L4.10928 28.5799C3.97692 27.6414 3.90415 26.6954 3.89142 25.7477C3.88634 21.4154 5.16715 17.1791 7.57161 13.5753C9.97608 9.97154 13.396 7.16246 17.3982 5.50388C21.4004 3.8453 25.8049 3.41185 30.0536 4.25844C34.3024 5.10502 38.2043 7.19354 41.2651 10.2595C41.8542 10.8355 42.4034 11.4509 42.909 12.1014H47.5832C46.5546 10.4484 45.3383 8.91983 43.9588 7.54606C40.3584 3.94384 35.7706 1.49029 30.7757 0.495725C25.7808 -0.498839 20.6031 0.0102696 15.8976 1.95866C11.192 3.90704 7.16998 7.20718 4.34019 11.4417C1.51041 15.6761 0 20.6547 0 25.7477C0 30.8407 1.51041 35.8192 4.34019 40.0537C7.16998 44.2882 11.192 47.5883 15.8976 49.5367C20.6031 51.4851 25.7808 51.9942 30.7757 50.9996C35.7706 50.0051 40.3584 47.5515 43.9588 43.9493C45.334 42.5644 46.5498 41.0298 47.5832 39.3741H42.909C42.4034 40.0247 41.8542 40.6401 41.2651 41.2161Z" fill="#3996CD"/>
<path d="M99.0786 30.8972L104.644 15.8447H108.982V34.3633H106.149V18.5779L100.366 34.3236H97.4347L91.4929 18.5779V34.3236H88.6211V15.8447H92.9586L99.0786 30.8972Z" fill="#231F20"/>
<path d="M118.726 15.8447H122.687L130.035 34.3633H126.807L124.826 29.5306H116.171L114.19 34.3633H111.061L118.726 15.8447ZM117.062 27.1737H123.994L120.608 18.0234L117.062 27.1737Z" fill="#231F20"/>
<path d="M135.026 34.3236H132.055V15.8447H135.026V34.3236ZM143.959 15.8447H147.563L138.195 24.7772L148.098 34.3633H144.137L135.006 24.9158L143.959 15.8447Z" fill="#231F20"/>
<path d="M163.448 18.162H158.08C155.387 18.162 154.119 18.7166 153.248 20.3605C152.668 21.4001 152.381 22.5773 152.416 23.7671H163.448V26.124H152.396C152.38 27.3733 152.679 28.6065 153.268 29.7089C153.733 30.4947 154.423 31.1226 155.25 31.5111C156.076 31.8996 157 32.0307 157.902 31.8875H163.448V34.2444H157.387C154.099 34.2444 152.337 33.5512 150.911 31.6498C149.616 29.8155 148.994 27.5912 149.148 25.3516C149.008 23.8288 149.229 22.2944 149.794 20.8732C150.358 19.4519 151.25 18.1838 152.396 17.1717C154.154 16.0271 156.25 15.517 158.338 15.7259H163.448V18.162Z" fill="#231F20"/>
<path d="M169.687 34.3236H166.716V15.8447H175.153C176.973 15.6554 178.807 16.0361 180.402 16.9341C181.014 17.3974 181.512 17.9959 181.855 18.6829C182.199 19.37 182.379 20.1271 182.382 20.8952C182.432 22.043 182.061 23.1695 181.339 24.0631C180.617 24.9566 179.593 25.5557 178.461 25.7477C180.917 26.8172 181.649 28.0056 181.867 31.4518C182.006 33.6502 182.006 33.6502 182.362 34.2642H179.312C179.202 34.0121 179.128 33.7453 179.094 33.472C179.094 32.5609 178.976 32.2242 178.936 31.5904C178.56 27.6292 176.955 26.4409 172.638 26.4409H169.687V34.3236ZM174.955 24.1236C176.054 24.2658 177.17 24.0579 178.144 23.5294C178.492 23.2396 178.767 22.8714 178.946 22.4548C179.125 22.0383 179.203 21.5853 179.174 21.1329C179.221 20.6279 179.13 20.1195 178.91 19.6624C178.69 19.2053 178.35 18.8167 177.926 18.5383C176.976 18.1941 175.961 18.0656 174.955 18.162H169.687V24.1038L174.955 24.1236Z" fill="#231F20"/>
<path d="M185.056 31.9667H192.978C193.913 32.0548 194.854 31.8763 195.692 31.4518C196.082 31.2115 196.398 30.8677 196.604 30.4585C196.81 30.0494 196.899 29.5911 196.86 29.1345C196.936 28.5576 196.812 27.9722 196.509 27.4752C196.207 26.9782 195.744 26.5993 195.197 26.4013C194.283 26.2318 193.352 26.172 192.424 26.223H190.899C189.281 26.3669 187.657 26.0365 186.225 25.2723C185.581 24.8392 185.06 24.2467 184.713 23.5525C184.366 22.8584 184.204 22.0862 184.244 21.3112C184.216 20.345 184.447 19.3888 184.914 18.5424C185.381 17.6959 186.066 16.9901 186.898 16.4983C188.374 15.8825 189.984 15.6574 191.572 15.8447H199.178V18.162H191.572C190.538 18.0446 189.492 18.2304 188.562 18.6968C188.216 18.964 187.941 19.3105 187.758 19.7071C187.575 20.1036 187.491 20.5384 187.512 20.9745C187.512 22.8362 188.661 23.5492 191.473 23.5492H192.582C195.83 23.5492 197.138 23.8067 198.148 24.6386C198.751 25.1908 199.226 25.8694 199.537 26.6259C199.849 27.3825 199.99 28.1984 199.95 29.0157C200.016 29.9572 199.807 30.8975 199.351 31.7234C198.894 32.5492 198.208 33.2253 197.375 33.67C195.885 34.2586 194.276 34.4826 192.681 34.3236H185.056V31.9667Z" fill="#231F20"/>
<path d="M52.7328 16.122C56.694 16.122 58.1596 16.5974 59.6846 18.1026C60.5175 19.0546 61.1515 20.1636 61.5495 21.3643C61.9474 22.565 62.1013 23.8331 62.0019 25.0941C62.0019 29.2731 60.8136 32.1648 58.4765 33.5314C56.7968 34.4078 54.8904 34.7532 53.0101 34.5217H45.6026V16.122H52.7328ZM48.6131 32.2638H53.3269C54.1803 32.3781 55.0485 32.2535 55.8353 31.9039C56.622 31.5542 57.2963 30.9932 57.7833 30.2832C58.5923 28.8495 58.9705 27.2128 58.8726 25.5694C58.9865 23.6228 58.5027 21.6878 57.4862 20.0238C56.9507 19.4289 56.2759 18.9762 55.5223 18.7066C54.7686 18.437 53.9598 18.3587 53.1685 18.4789H48.6131V32.2638Z" fill="#231F20"/>
<path d="M78.1635 18.4789H72.7764C70.1026 18.4789 68.8152 19.0335 67.9635 20.6576C67.3737 21.722 67.086 22.9274 67.1317 24.1434H78.1635V26.5003H67.0921C67.0932 27.7563 67.399 28.9932 67.9833 30.105C68.8944 31.6895 70.1422 32.2638 72.6179 32.2638H78.1635V34.6207H72.103C68.8152 34.6207 67.0524 33.9275 65.6264 32.046C64.3338 30.2109 63.7114 27.9872 63.8637 25.7477C63.7214 24.2265 63.9396 22.6932 64.5005 21.272C65.0614 19.8508 65.9492 18.5818 67.0921 17.5678C68.8495 16.4217 70.9463 15.9115 73.0338 16.122H78.2428L78.1635 18.4789Z" fill="#231F20"/>
<path d="M43.4042 25.3516C43.4042 29.4712 42.4139 32.1648 40.3145 33.9671C38.2321 35.5853 35.6405 36.4071 33.0061 36.2844C31.5103 36.4045 30.0072 36.1754 28.6151 35.6151C27.2231 35.0548 25.9803 34.1788 24.9847 33.0561C23.5388 30.782 22.8139 28.1241 22.9051 25.4308C22.7824 22.5823 23.6581 19.7803 25.3808 17.5084C26.4281 16.4382 27.6995 15.6132 29.1035 15.0927C30.5075 14.5722 32.0094 14.3691 33.5012 14.4979C40.1362 14.4979 43.4042 18.0828 43.4042 25.3516ZM27.3218 20.4001C26.7271 21.9882 26.4446 23.6762 26.49 25.3714C26.49 31.1151 28.4705 33.5908 33.224 33.5908C34.433 33.7472 35.6604 33.5148 36.7286 32.9273C37.7968 32.3398 38.6503 31.4276 39.1657 30.3228C39.6759 28.7777 39.917 27.1565 39.8787 25.5298C40.0042 23.4731 39.5732 21.4206 38.631 19.588C38.0169 18.758 37.1972 18.1022 36.2525 17.6854C35.3078 17.2687 34.2708 17.1053 33.2438 17.2113C32.0501 17.0823 30.8453 17.3179 29.7882 17.8871C28.731 18.4564 27.8711 19.3325 27.3218 20.4001Z" fill="#231F20"/>
</svg>
