<svg width="52" height="51" viewBox="0 0 52 51" fill="none" xmlns="http://www.w3.org/2000/svg">
<path d="M17.3333 4.25H34.6666C41.8361 4.25 47.6666 9.96838 47.6666 17V42.5C47.6666 43.0636 47.4384 43.6041 47.032 44.0026C46.6257 44.4011 46.0746 44.625 45.5 44.625H17.3333C10.1638 44.625 4.33328 38.9066 4.33328 31.875V17C4.33328 9.96838 10.1638 4.25 17.3333 4.25ZM8.66661 31.875C8.66661 36.5628 12.5536 40.375 17.3333 40.375H43.3333V17C43.3333 12.3123 39.4463 8.5 34.6666 8.5H17.3333C12.5536 8.5 8.66661 12.3123 8.66661 17V31.875Z" fill="white"/>
</svg>
