<svg width="135" height="174" viewBox="0 0 135 174" fill="none" xmlns="http://www.w3.org/2000/svg">
<g clip-path="url(#clip0)">
<path d="M76.2484 42.8815H13.4556C6.02698 42.8815 0 48.3875 0 55.1739V161.708C0 168.494 6.02698 174 13.4556 174H76.2484C83.677 174 89.7039 168.494 89.7039 161.708V55.1739C89.7039 48.3875 83.677 42.8815 76.2484 42.8815ZM44.852 165.805C39.8902 165.805 35.8816 162.143 35.8816 157.61C35.8816 153.077 39.8902 149.415 44.852 149.415C49.8137 149.415 53.8224 153.077 53.8224 157.61C53.8224 162.143 49.8137 165.805 44.852 165.805ZM76.2484 138.147C76.2484 139.838 74.7346 141.22 72.8845 141.22H16.8195C14.9693 141.22 13.4556 139.838 13.4556 138.147V58.247C13.4556 56.5568 14.9693 55.1739 16.8195 55.1739H72.8845C74.7346 55.1739 76.2484 56.5568 76.2484 58.247V138.147Z" fill="white"/>
</g>
<g clip-path="url(#clip1)">
<path d="M121.544 0H58.7516C51.323 0 45.2961 5.50595 45.2961 12.2924V118.826C45.2961 125.613 51.323 131.118 58.7516 131.118H121.544C128.973 131.118 135 125.613 135 118.826V12.2924C135 5.50595 128.973 0 121.544 0ZM90.148 122.924C85.1863 122.924 81.1776 119.261 81.1776 114.729C81.1776 110.196 85.1863 106.534 90.148 106.534C95.1098 106.534 99.1184 110.196 99.1184 114.729C99.1184 119.261 95.1098 122.924 90.148 122.924ZM121.544 95.2658C121.544 96.956 120.031 98.3389 118.181 98.3389H62.1155C60.2654 98.3389 58.7516 96.956 58.7516 95.2658V15.3654C58.7516 13.6752 60.2654 12.2924 62.1155 12.2924H118.181C120.031 12.2924 121.544 13.6752 121.544 15.3654V95.2658Z" fill="white"/>
</g>
<defs>
<clipPath id="clip0">
<rect width="89.7039" height="131.118" fill="white" transform="translate(0 42.8815)"/>
</clipPath>
<clipPath id="clip1">
<rect width="89.7039" height="131.118" fill="white" transform="translate(45.2961)"/>
</clipPath>
</defs>
</svg>
