<svg width="188" height="182" viewBox="0 0 188 182" fill="none" xmlns="http://www.w3.org/2000/svg">
<path d="M173.496 73.2267H126.496C125.688 73.2267 125.027 73.8666 125.027 74.6486V83.1799C125.027 83.9619 125.688 84.6017 126.496 84.6017H173.496C174.304 84.6017 174.965 83.9619 174.965 83.1799V74.6486C174.965 73.8666 174.304 73.2267 173.496 73.2267ZM148.895 97.3986H126.496C125.688 97.3986 125.027 98.0385 125.027 98.8205V107.352C125.027 108.134 125.688 108.774 126.496 108.774H148.895C149.702 108.774 150.363 108.134 150.363 107.352V98.8205C150.363 98.0385 149.702 97.3986 148.895 97.3986ZM87.6293 57.3195H79.6797C78.5414 57.3195 77.6234 58.2082 77.6234 59.3101V103.388C77.6234 104.028 77.9355 104.615 78.4679 104.988L105.805 124.29C106.723 124.93 108.008 124.752 108.669 123.863L113.387 117.625V117.607C114.048 116.718 113.846 115.474 112.928 114.834L89.6672 98.5539V59.3101C89.6855 58.2082 88.7492 57.3195 87.6293 57.3195Z" fill="white"/>
<path d="M147.756 119.775H137.145C136.116 119.775 135.143 120.291 134.593 121.144C132.261 124.716 129.544 128.022 126.423 131.044C121.043 136.251 114.783 140.339 107.825 143.183C100.609 146.133 92.9536 147.626 85.0591 147.626C77.1462 147.626 69.4903 146.133 62.2935 143.183C55.3353 140.339 49.0747 136.251 43.6954 131.044C38.3161 125.836 34.0935 119.775 31.156 113.039C28.1083 106.072 26.5661 98.6605 26.5661 91.0001C26.5661 83.3398 28.1083 75.946 31.156 68.961C34.0935 62.2249 38.3161 56.1642 43.6954 50.9566C49.0747 45.7489 55.3353 41.661 62.2935 38.8173C69.4903 35.8669 77.1646 34.3739 85.0591 34.3739C92.972 34.3739 100.628 35.8669 107.825 38.8173C114.783 41.661 121.043 45.7489 126.423 50.9566C129.544 53.978 132.261 57.2839 134.593 60.8564C135.143 61.7095 136.116 62.2249 137.145 62.2249H147.756C149.023 62.2249 149.831 60.9452 149.262 59.861C137.291 36.8089 113.02 21.8259 85.922 21.5237C46.2474 21.0438 13.2923 52.4851 13.2189 90.8579C13.1454 129.302 45.3294 160.494 85.0407 160.494C112.488 160.494 137.163 145.458 149.262 122.139C149.831 121.055 149.005 119.775 147.756 119.775Z" fill="white"/>
</svg>
