<svg width="535" height="420" viewBox="0 0 535 420" fill="none" xmlns="http://www.w3.org/2000/svg">
<path opacity="0.4" d="M409.73 15.497H191.134V232.503H409.73V15.497Z" fill="#FFD180"/>
<path d="M392.382 35.8084H179.094V75.4251H392.382V35.8084Z" fill="#EBFFF8"/>
<path d="M385.988 41.5329H357.638V69.6767H385.988V41.5329Z" fill="#D3E8F2"/>
<path d="M254.252 43.2335H192.871V48.6707H254.252V43.2335Z" fill="url(#paint0_linear)"/>
<path d="M254.252 52.8862H192.871V58.3234H254.252V52.8862Z" fill="url(#paint1_linear)"/>
<path d="M234.201 62.5389H192.871V67.9761H234.201V62.5389Z" fill="url(#paint2_linear)"/>
<path d="M347.336 199.162H224.816V256.239H347.336V199.162Z" fill="url(#paint3_linear)"/>
<path d="M303.231 207.737H240.716V214.012H303.231V207.737Z" fill="#FFE1AB"/>
<path d="M288.392 218.874H240.716V225.15H288.392V218.874Z" fill="#FFE1AB"/>
<path d="M272.878 230.012H240.716V236.263H272.878V230.012Z" fill="#FFE1AB"/>
<path d="M295.992 230.012H276.835V236.263H295.992V230.012Z" fill="#F7634B"/>
<path d="M284.17 241.15H240.716V247.425H284.17V241.15Z" fill="#FFE1AB"/>
<path opacity="0.7" d="M324.873 0H278.572V45.9641H324.873V0Z" fill="#FFD180"/>
<path opacity="0.6" d="M316.211 23.0898C316.211 25.9322 315.362 28.7107 313.771 31.074C312.181 33.4374 309.92 35.2794 307.275 36.3671C304.629 37.4548 301.719 37.7394 298.91 37.1849C296.102 36.6304 293.523 35.2617 291.498 33.2518C289.474 31.242 288.095 28.6812 287.536 25.8935C286.978 23.1057 287.264 20.2161 288.36 17.5901C289.456 14.9641 291.311 12.7196 293.692 11.1405C296.073 9.56137 298.871 8.71851 301.735 8.71851C305.574 8.71851 309.256 10.2326 311.971 12.9278C314.686 15.6229 316.211 19.2783 316.211 23.0898Z" fill="#F7634B"/>
<path d="M312.713 23.0898C312.717 24.806 312.312 26.4989 311.532 28.0306C310.752 29.5623 309.619 30.8895 308.225 31.9042C307.408 32.491 306.515 32.9663 305.571 33.3174C305.139 33.4857 304.696 33.6218 304.244 33.7246L303.424 33.8922C302.854 33.9406 302.28 33.9406 301.71 33.8922C300.272 33.9017 298.846 33.6298 297.513 33.092C296.18 32.5543 294.967 31.7612 293.944 30.7581C292.92 29.755 292.105 28.5615 291.546 27.2458C290.986 25.9301 290.694 24.5179 290.684 23.0898C290.681 21.4298 291.061 19.7912 291.794 18.2994C292.641 16.5353 293.96 15.0358 295.606 13.9641C295.983 13.7049 296.378 13.4728 296.788 13.2694C297.699 12.8259 298.664 12.5038 299.66 12.3114C300.329 12.1942 301.007 12.138 301.686 12.1437C303.915 12.1397 306.091 12.809 307.927 14.0625C309.763 15.3161 311.171 17.0946 311.965 19.1617C312.46 20.4128 312.714 21.7454 312.713 23.0898Z" fill="#EFF4F4"/>
<path d="M306.439 20.1438C306.256 19.8619 305.968 19.6633 305.638 19.5915C305.308 19.5197 304.963 19.5805 304.678 19.7605L302.989 20.8144V16.024C302.989 15.6873 302.855 15.3644 302.615 15.1264C302.375 14.8883 302.05 14.7545 301.711 14.7545C301.371 14.7545 301.046 14.8883 300.806 15.1264C300.566 15.3644 300.432 15.6873 300.432 16.024V23.0899C300.423 23.1694 300.423 23.2498 300.432 23.3294C300.422 23.4089 300.422 23.4893 300.432 23.5689C300.524 23.6843 300.629 23.7888 300.745 23.8803H300.89C301.059 23.9756 301.251 24.0252 301.445 24.024C301.588 24.0576 301.737 24.0576 301.879 24.024H302L305.643 21.7485C305.962 21.6395 306.225 21.4097 306.374 21.109C306.524 20.8084 306.547 20.4614 306.439 20.1438Z" fill="url(#paint4_linear)"/>
<path d="M454.245 87.2096H350.352V190.347H454.245V87.2096Z" fill="#FFD180"/>
<path d="M402.298 143.425C398.789 143.425 395.424 142.043 392.941 139.582C390.457 137.121 389.059 133.783 389.052 130.299V122.395C389.059 118.912 390.457 115.573 392.941 113.112C395.424 110.652 398.789 109.269 402.298 109.269C405.805 109.269 409.168 110.652 411.648 113.114C414.127 115.575 415.52 118.914 415.52 122.395V130.299C415.52 133.781 414.127 137.119 411.648 139.581C409.168 142.042 405.805 143.425 402.298 143.425Z" fill="#F8FFFB"/>
<path d="M402.298 136.671C396.382 136.667 390.586 138.334 385.588 141.477C380.59 144.619 376.595 149.108 374.069 154.419C373.391 155.821 373.08 157.37 373.166 158.923C373.251 160.476 373.73 161.983 374.557 163.303C375.385 164.624 376.534 165.716 377.9 166.478C379.265 167.24 380.802 167.649 382.369 167.665H422.059C423.645 167.687 425.211 167.307 426.609 166.562C428.007 165.816 429.19 164.729 430.047 163.404C430.905 162.078 431.407 160.558 431.508 158.986C431.609 157.414 431.305 155.842 430.624 154.419C428.091 149.093 424.081 144.595 419.064 141.451C414.047 138.307 408.231 136.649 402.298 136.671Z" fill="#F8FFFB"/>
<path opacity="0.6" d="M365.793 65.3653H297.126V95.6167H365.793V65.3653Z" fill="#F7634B"/>
<path opacity="0.6" d="M323.908 142.371H255.241V172.623H323.908V142.371Z" fill="#F7634B"/>
<path opacity="0.6" d="M344.827 103.856H276.184V134.108H344.827V103.856Z" fill="#F7634B"/>
<g style="mix-blend-mode:multiply" opacity="0.3">
<g style="mix-blend-mode:multiply" opacity="0.3">
<path d="M285.559 107.028L284.836 108.649L335.483 131.019L336.206 129.398L285.559 107.028Z" fill="#F7634B"/>
</g>
<g style="mix-blend-mode:multiply" opacity="0.3">
<path d="M335.496 107.077L284.819 129.349L285.542 130.97L336.218 108.698L335.496 107.077Z" fill="#F7634B"/>
</g>
</g>
<path d="M353.416 25.6287C320.819 19.6886 305.161 75.9281 340.749 80.7185C375.348 85.3413 382.827 25.6287 347.36 29.0299C342.751 29.485 342.703 36.6706 347.36 36.2155C372.428 33.8203 366.662 74.9221 343.258 73.7724C316.066 72.4311 327.72 28.2634 351.486 32.5029C356.046 33.3413 358 26.4191 353.416 25.5808V25.6287Z" fill="#F7634B"/>
<path d="M299.394 56.2395C270.007 57.1496 239.654 68.3592 220.208 90.97C206.72 106.635 193.667 140.239 220.063 150.443C224.406 152.12 226.312 145.174 221.993 143.521C205.104 136.958 212.728 115.042 219.58 103.952C225.065 95.3678 232.247 87.9772 240.692 82.2275C257.973 70.352 278.404 63.8107 299.418 63.4251C304.051 63.2814 304.075 56.0957 299.418 56.2395H299.394Z" fill="#F7634B"/>
<path d="M225.926 133.389L232.127 140.575C233.767 142.467 237.193 145.102 237.7 147.593C238.014 146.419 238.327 145.198 238.617 144.096C236.059 146.347 231.692 147.76 228.652 149.365L218.446 154.778C214.345 156.958 217.988 163.162 222.114 160.982L236.952 153.126C239.534 151.76 244.19 150.443 244.745 147.114C245.204 144.263 242.622 141.796 240.957 139.928C237.724 136.048 234.346 132.24 231.041 128.383C227.735 124.527 222.91 129.988 225.926 133.485V133.389Z" fill="#F7634B"/>
<path d="M366.903 234.275C382.972 238.18 407.582 229.126 411.756 211.713C412.818 207.21 405.845 205.293 404.759 209.796C401.55 223.21 381.042 230.323 368.809 227.329C364.297 226.228 362.367 233.174 366.903 234.275Z" fill="#F7634B"/>
<path d="M394.433 213.174C400.513 208.383 406.497 203.353 412.842 198.802L407.896 197.509C411.43 202.602 414.575 207.95 417.306 213.509C419.405 217.629 425.654 213.988 423.555 209.868C420.824 204.317 417.679 198.977 414.145 193.892C413.657 193.075 412.865 192.481 411.939 192.239C411.013 191.997 410.029 192.126 409.199 192.599C402.347 197.389 395.88 202.826 389.318 208.048C385.674 210.946 390.838 216 394.433 213.126V213.174Z" fill="#F7634B"/>
<path d="M369.678 246.946H329.578V286.754H369.678V246.946Z" fill="#95EFC6"/>
<path d="M349.628 268.647C348.956 268.647 348.291 268.515 347.67 268.26C347.05 268.005 346.486 267.631 346.011 267.159C345.536 266.688 345.159 266.128 344.902 265.512C344.645 264.896 344.513 264.236 344.513 263.569V260.527C344.513 259.18 345.052 257.889 346.011 256.936C346.97 255.984 348.271 255.449 349.628 255.449C350.984 255.449 352.285 255.984 353.245 256.936C354.204 257.889 354.743 259.18 354.743 260.527V263.473C354.756 264.148 354.633 264.818 354.382 265.446C354.13 266.073 353.756 266.644 353.279 267.126C352.803 267.607 352.235 267.99 351.608 268.251C350.981 268.512 350.308 268.647 349.628 268.647Z" fill="#F8FFFB"/>
<path d="M349.628 266.036C347.343 266.035 345.105 266.679 343.175 267.892C341.244 269.104 339.7 270.836 338.722 272.886C338.461 273.431 338.344 274.033 338.38 274.635C338.417 275.237 338.607 275.82 338.932 276.33C339.257 276.839 339.708 277.259 340.241 277.549C340.773 277.839 341.372 277.99 341.979 277.988H357.276C357.884 277.99 358.482 277.839 359.015 277.549C359.548 277.259 359.998 276.839 360.324 276.33C360.649 275.82 360.839 275.237 360.875 274.635C360.912 274.033 360.795 273.431 360.534 272.886C359.556 270.836 358.012 269.104 356.081 267.892C354.15 266.679 351.912 266.035 349.628 266.036Z" fill="#F8FFFB"/>
<path d="M444.884 416.431C444.884 418.395 465.054 420 489.93 420C514.805 420 535 418.395 535 416.431C535 414.467 514.829 412.838 489.93 412.838C465.03 412.838 444.884 414.371 444.884 416.431Z" fill="#D8D8D8"/>
<path d="M508.653 402.06C508.239 403.854 507.988 405.682 507.905 407.521C507.543 409.725 505.492 410.515 504.213 412.311C502.934 414.108 500.739 417.485 509.039 417.653C517.869 417.82 523.129 417.222 521.609 412.431C520.549 409.742 519.977 406.887 519.92 404C520.056 403.283 520.038 402.545 519.867 401.836C519.697 401.126 519.378 400.46 518.931 399.88C517.894 398.946 509.956 397.27 508.653 402.06Z" fill="url(#paint5_linear)"/>
<path d="M438.562 147.066C441.94 145.126 448.768 139.689 461.338 122.683C465.871 116.728 469.906 110.416 473.402 103.808C476.78 97.5809 473.571 92.1198 469.011 91.018C463.148 89.6049 456.754 90.515 450.119 100.24C442.935 110.636 436.315 121.406 430.286 132.503C425.292 141.677 434.581 149.341 438.562 147.066Z" fill="url(#paint6_linear)"/>
<path d="M469.952 64.6707C466.333 66.3474 464.741 66.3713 463.438 61.8923C462.424 58.4192 460.711 46.2276 466.309 45.4132C471.906 44.5988 476.322 44.4551 475.67 51.9521C475.019 59.4492 474.247 62.6587 469.952 64.6707Z" fill="url(#paint7_linear)"/>
<path d="M491.112 71.2096C491.112 71.7605 492.415 83.4252 492.608 92.3832C492.476 94.64 491.513 96.77 489.903 98.3685C488.293 99.967 486.147 100.923 483.874 101.054H483.705C479.362 101.054 474.247 97.1497 474.633 92.8383C475.057 87.5469 475.106 82.2323 474.778 76.9341L491.112 71.2096Z" fill="#EA8F68"/>
<path d="M513.02 119.76C504.937 146.108 501.342 177.988 502.91 196.407H442.205C442.205 196.407 442.567 139.976 446.621 109.054C447.121 105.281 448.553 101.689 450.788 98.5967C453.023 95.5047 455.992 93.0083 459.432 91.3293C464.548 89.1184 470.045 87.9067 475.622 87.7605H486.841C490.825 87.9046 494.789 88.3934 498.688 89.2215C514.757 92.2635 517.676 104.575 513.02 119.76Z" fill="url(#paint8_linear)"/>
<path d="M502.669 233.317C502.669 233.317 507.832 220.671 503.007 196.407H442.205C441.934 208.749 442.741 221.09 444.618 233.293L502.669 233.317Z" fill="url(#paint9_linear)"/>
<path d="M490.678 312.192C485.852 292.575 505.999 289.126 512.392 303.329C521.392 323.401 520.644 390.323 520.162 403.138C520.162 404.814 520.162 404.671 519.221 404.407C517.725 404.048 516.325 400.838 512.392 400.958C510.124 400.958 508.267 403.784 508.267 403.784C506.361 386.323 495.383 331.21 490.678 312.192Z" fill="url(#paint10_linear)"/>
<path d="M474.295 235.928C472.172 211.569 480.134 192.647 495.358 200.695C501.776 204.096 504.117 210.874 505.009 217.245C505.902 223.617 510.583 289.94 512.248 301.94C515.987 328.958 494.49 321.677 492.173 314.18C486.238 295.281 475.453 249.222 474.295 235.928Z" fill="url(#paint11_linear)"/>
<path d="M453.087 312.144C449.251 294.228 467.008 291.665 473.933 305.605C484.839 327.545 481.171 380.168 485.128 408.599C481.22 404.216 478.3 404.24 476.949 404.575C476.35 404.685 475.782 404.925 475.286 405.277C474.79 405.629 474.378 406.084 474.078 406.611C468.215 369.245 457.164 331.281 453.087 312.144Z" fill="url(#paint12_linear)"/>
<path d="M447.755 126.946C444.497 125.772 439.455 123.928 436.801 122.754C434.147 121.581 431.251 127.545 431.975 129.222C433.157 131.856 439.431 137.509 442.712 135.808C445.993 134.108 448.527 136.599 450.867 134.227C453.207 131.856 453.039 128.958 447.755 126.946Z" fill="#FFAF84"/>
<path d="M474.054 310.659C472.944 318.419 454.148 330.299 451.736 303.138C450.65 291.162 443.677 224.934 443.098 218.515C442.519 212.096 441.65 202.347 443.943 200.79C458.178 191.21 474.343 208.407 474.15 232.886C474.054 249.245 476.466 294.611 474.054 310.659Z" fill="url(#paint13_linear)"/>
<path d="M447.513 133.15C449.781 137.557 453.618 139.329 463.462 145.581C477.649 154.563 485.562 158.036 492.632 158.204C499.701 158.371 500.835 143.832 492.366 139.377C485.128 135.545 456.175 130.922 451.736 128.575C448.864 126.946 445.68 129.581 447.513 133.15Z" fill="url(#paint14_linear)"/>
<path d="M474.054 91.6167C473.812 96.5509 472.63 100.503 466.357 110.299C457.936 123.425 447.296 141.437 441.385 146.419C435.932 150.97 425.388 140.599 431.227 133.03C436.053 126.635 465.416 93.1257 468.408 89.2215C470.314 86.6347 474.054 87.6167 474.054 91.6167Z" fill="url(#paint15_linear)"/>
<path d="M497.071 62.7545C496.058 72.7186 495.768 74.9222 491.377 79.018C487.121 82.7684 481.65 84.8764 475.96 84.9581C470.797 84.9581 466.984 79.5689 465.826 75.3772C463.917 67.0019 463.525 58.3561 464.668 49.8443C465.491 46.5132 467.361 43.5288 470.007 41.3238C472.654 39.1188 475.939 37.8078 479.386 37.5808C486.479 37.5569 499.508 38.3234 497.071 62.7545Z" fill="#FFAF84"/>
<path d="M474.054 406.06C471.776 408.843 468.807 410.989 465.44 412.287C460.856 414.252 451.108 415.162 456.537 416.91C461.431 418.076 466.525 418.141 471.448 417.102C474.781 416.646 478.145 416.445 481.509 416.503C486.455 416.503 486.504 416.192 485.828 410.826C484.935 403.449 476.322 401.892 474.054 406.06Z" fill="url(#paint16_linear)"/>
<path d="M497.047 61.1977C494.321 63.9043 492.897 64.4312 490.243 60.8144C488.192 57.9881 482.643 47.521 487.444 44.9821C492.246 42.4432 496.155 40.8623 498.037 47.8563C499.918 54.8504 500.256 57.9881 497.047 61.1977Z" fill="url(#paint17_linear)"/>
<path d="M494.08 62.8742C492.656 66.3233 492.97 69.7245 494.803 70.4431C496.637 71.1617 499.243 68.982 500.666 65.5329C502.09 62.0838 501.752 58.7065 499.943 57.964C498.133 57.2215 495.479 59.4251 494.08 62.8742Z" fill="#FFAF84"/>
<path d="M468.48 95.1377C467.105 93.1258 457.02 76.8623 461.242 76.1916C465.802 75.4491 471.231 80.982 472.823 83.1377C474.084 84.7085 474.829 86.6253 474.959 88.6296C475.088 90.634 474.596 92.6296 473.547 94.3473C472.124 95.9521 469.807 97.03 468.48 95.1377Z" fill="#FFAF84"/>
<path d="M494.562 158.084C498.061 156.383 503.007 147.449 509.787 127.449C512.316 120.435 514.253 113.225 515.577 105.892C516.904 98.9221 511.186 94.3233 507.495 95.0179C501.559 96.1197 494.273 101.605 493.356 105.198C488.144 125.437 485.394 141.317 483.27 146.108C480.158 152.982 490.726 159.88 494.562 158.084Z" fill="url(#paint18_linear)"/>
<path d="M493.79 44.3113C490.485 46.5149 475.405 50.6107 470.989 51.7125C470.989 51.7125 477.118 48.5748 478.059 46.9221C472.456 47.6977 466.772 47.6977 461.17 46.9221C462.777 46.0116 464.261 44.9008 465.585 43.6167C462.855 43.6615 460.139 43.2068 457.575 42.2754C457.575 42.2754 473.957 31.1856 488.192 35.0898C495.455 37.4371 497.12 42.0598 493.79 44.3113Z" fill="url(#paint19_linear)"/>
<path d="M193.378 415.425C193.378 417.82 166.837 419.904 134.048 419.904C101.259 419.904 74.7184 417.916 74.7184 415.425C74.7184 412.934 101.259 410.946 134.048 410.946C166.837 410.946 193.378 412.958 193.378 415.425Z" fill="#D8D8D8"/>
<path d="M118.92 77.0299C122.298 72.2395 118.438 63.9521 108.835 63.1856C97.8808 62.2754 78.3616 68.5509 88.8812 93.8922C99.7387 120.24 96.3367 127.018 89.026 130.97C89.026 130.97 114.119 132.958 112.188 111.21C110.258 89.4611 111.079 88 118.92 77.0299Z" fill="url(#paint20_linear)"/>
<path d="M169.226 159.449C165.462 158.802 157.331 156.479 140.008 147.305C133.943 144.203 128.106 140.681 122.539 136.766C117.328 133.15 119.089 128.024 122.394 126.922C127.574 125.427 133.125 125.861 138.005 128.144C154.243 138.18 166.234 146.156 170.746 148.096C177.285 150.898 173.69 160.192 169.226 159.449Z" fill="url(#paint21_linear)"/>
<path d="M197.407 126.299C197.648 129.078 194.295 129.605 189.662 137.269C185.498 144.908 180.103 151.817 173.69 157.725C169.202 162.132 160.999 157.509 165.366 151.21C169.033 145.892 190.048 126.731 192.268 123.473C193.74 121.341 197.214 124.024 197.407 126.299Z" fill="url(#paint22_linear)"/>
<path d="M115.18 108.671C115.18 109.198 114.263 120.647 114.119 129.581C114.119 133.916 117.183 138.036 120.344 138.132C122.24 137.82 123.951 136.818 125.142 135.321C126.334 133.824 126.92 131.939 126.786 130.036C126.521 124.802 126.521 119.558 126.786 114.323L115.18 108.671Z" fill="#EA8F68"/>
<path d="M106.181 158.491C108.706 166.395 110.562 174.495 111.73 182.707C112.647 188.748 112.647 194.892 111.73 200.934C111.248 204.575 110.524 208.12 109.679 211.736C109.366 213.102 106.687 224.024 106.567 225.198H156.752C156.27 215.425 145.074 184.719 152.65 164.814C157.91 151.042 150.937 150.635 146.184 139.162C145.235 136.224 143.887 133.428 142.179 130.85C140.207 128.465 137.505 126.783 134.482 126.06C132.942 125.716 131.377 125.492 129.802 125.389C121.309 124.719 101.283 122.275 99.4009 134.275C98.9549 137.549 99.2938 140.881 100.39 144C101.524 147.497 103.189 150.802 104.588 154.204C105.167 155.657 105.698 157.086 106.181 158.491Z" fill="url(#paint23_linear)"/>
<path d="M106.712 256.886C106.712 256.886 102.489 246.012 106.494 225.15H156.752C157.925 235.673 158.537 246.251 158.586 256.838L106.712 256.886Z" fill="url(#paint24_linear)"/>
<path d="M115.639 326.874C122.226 310.826 106.181 305.317 99.0631 316.575C89.026 332.479 84.5865 391.257 83.3319 402.204C83.163 403.641 83.9592 403.473 84.8037 403.329C87.2164 402.85 86.2272 400.527 89.774 400.742C91.6559 400.862 92.1867 403.425 92.1867 403.425C96.0713 388.838 109.245 342.515 115.639 326.874Z" fill="url(#paint25_linear)"/>
<path d="M131.659 259.162C133.421 238.204 125.362 221.94 112.743 228.862C107.435 231.76 105.505 237.581 104.781 243.066C104.058 248.551 100.076 305.533 98.7977 315.832C95.7094 339.042 113.516 332.79 115.446 326.347C120.32 310.132 130.694 270.659 131.659 259.162Z" fill="url(#paint26_linear)"/>
<path d="M161.36 323.569C162.012 307.856 147.173 308.192 143.434 320.982C137.547 341.102 147.704 384.287 148.259 408.982C150.841 404.718 153.278 403.689 154.436 403.76C155 403.818 155.546 403.99 156.04 404.266C156.534 404.542 156.965 404.916 157.307 405.365C157.042 372.862 160.661 340.359 161.36 323.569Z" fill="url(#paint27_linear)"/>
<path d="M144.037 325.27C145.991 331.689 163.001 339.114 161.216 315.689C160.395 305.389 158.344 248.192 157.983 242.683C157.621 237.174 156.655 229.102 153.977 228.096C140.538 223.066 127.437 239.521 131.056 260.216C133.372 274.06 139.935 311.952 144.037 325.27Z" fill="url(#paint28_linear)"/>
<path d="M109.148 100.311C110.138 110.156 110.427 112.287 114.746 116.359C118.956 120.043 124.359 122.1 129.971 122.156C135.061 122.156 138.825 116.838 139.959 112.575C141.825 104.364 142.209 95.8892 141.093 87.5449C140.261 84.288 138.413 81.3759 135.813 79.2248C133.213 77.0738 129.994 75.7941 126.617 75.5689C119.596 75.4491 106.711 76.2635 109.148 100.311Z" fill="#FFAF84"/>
<path d="M157.983 405.293C159.876 407.68 162.374 409.523 165.221 410.635C169.033 412.335 177.092 413.03 172.604 414.611C168.562 415.611 164.342 415.668 160.275 414.778C157.518 414.394 154.734 414.226 151.951 414.275C147.825 414.275 147.801 413.988 148.356 409.485C149.031 403.042 156.173 401.701 157.983 405.293Z" fill="url(#paint29_linear)"/>
<path d="M92.0902 402.395C92.6693 403.497 93.2725 408.862 97.0605 410.539C100.849 412.216 108.931 412.934 104.444 414.515C100.402 415.515 96.182 415.573 92.1144 414.683C89.4603 414.252 89.0502 411.401 85.9136 411.377C81.8119 411.377 81.7878 411.09 82.3427 406.587C83.1872 400.239 90.2324 398.898 92.0902 402.395Z" fill="url(#paint30_linear)"/>
<path d="M139.453 82.3952C143.337 88.982 115.108 101.054 108.835 100.024C102.562 98.994 102.634 85.7724 107.459 79.7365C112.285 73.7006 130.284 66.8503 139.453 82.3952Z" fill="url(#paint31_linear)"/>
<path d="M129.03 80.7425C130.043 86.2994 139.887 87.5928 141.552 92.1916C142.613 95.0659 143.096 86.0359 140.78 81.9401C138.463 77.8443 126.93 69.4611 129.03 80.7425Z" fill="url(#paint32_linear)"/>
<path d="M112.14 100.431C113.54 103.832 113.226 107.186 111.416 107.928C109.607 108.671 107.025 106.491 105.626 103.138C104.226 99.7844 104.564 96.3832 106.35 95.6647C108.135 94.9461 110.693 97.03 112.14 100.431Z" fill="#FFAF84"/>
<g opacity="0.7">
<path opacity="0.7" d="M203.535 229.94L228.628 212.072L241.15 203.162C241.825 202.683 242.398 202.077 242.836 201.378C243.274 200.679 243.569 199.901 243.704 199.089C243.838 198.277 243.81 197.446 243.62 196.645C243.43 195.843 243.083 195.087 242.598 194.419L179.384 106.85C178.406 105.503 176.93 104.595 175.28 104.325C173.629 104.056 171.938 104.447 170.577 105.413L157.983 114.323L2.62523 225.006C1.26938 225.972 0.355315 227.433 0.0838723 229.068C-0.187571 230.703 0.205806 232.378 1.17757 233.725L64.3918 321.221C65.3658 322.573 66.8399 323.486 68.4908 323.759C70.1417 324.033 71.8347 323.646 73.1983 322.683L177.574 248.431C178.02 248.74 178.55 248.906 179.094 248.906C179.638 248.906 180.169 248.74 180.614 248.431L202.546 232.79C202.993 232.48 203.33 232.037 203.508 231.525C203.685 231.013 203.695 230.458 203.535 229.94Z" fill="url(#paint33_linear)"/>
<path opacity="0.7" d="M37.2 274.347C36.7442 273.719 36.4181 273.008 36.2405 272.254C36.0629 271.5 36.0373 270.719 36.1651 269.955C36.2929 269.192 36.5717 268.461 36.9854 267.805C37.399 267.148 37.9394 266.58 38.5753 266.132C39.2065 265.678 39.9219 265.353 40.6803 265.175C41.4387 264.996 42.2251 264.969 42.9942 265.094C43.7633 265.218 44.5001 265.493 45.162 265.901C45.8239 266.309 46.3979 266.844 46.851 267.473C47.3068 268.101 47.6329 268.813 47.8105 269.566C47.9881 270.32 48.0138 271.101 47.8859 271.865C47.7581 272.629 47.4793 273.36 47.0657 274.016C46.652 274.672 46.1117 275.241 45.4758 275.689C44.8445 276.142 44.1291 276.468 43.3707 276.646C42.6124 276.824 41.826 276.852 41.0568 276.727C40.2877 276.602 39.551 276.328 38.8891 275.919C38.2272 275.511 37.6531 274.977 37.2 274.347Z" fill="#E3FFF0"/>
<path opacity="0.7" d="M187.587 140.503C187.401 140.247 187.267 139.957 187.194 139.65C187.121 139.342 187.11 139.023 187.162 138.712C187.213 138.4 187.327 138.102 187.495 137.834C187.663 137.565 187.883 137.333 188.142 137.15C188.661 136.784 189.305 136.636 189.933 136.739C190.561 136.843 191.123 137.188 191.496 137.701C191.865 138.216 192.013 138.855 191.909 139.479C191.805 140.102 191.457 140.66 190.941 141.03C190.425 141.399 189.783 141.55 189.155 141.451C188.527 141.353 187.963 141.012 187.587 140.503Z" fill="#E3FFF0"/>
<path opacity="0.7" d="M208.65 167.114L194.656 147.761C194.588 147.667 194.539 147.56 194.513 147.448C194.487 147.335 194.484 147.218 194.504 147.104C194.524 146.99 194.567 146.881 194.631 146.784C194.694 146.687 194.777 146.604 194.874 146.539C195.063 146.405 195.298 146.351 195.528 146.387C195.758 146.422 195.965 146.546 196.104 146.731L210.098 166.084C210.216 166.275 210.258 166.503 210.213 166.723C210.168 166.943 210.041 167.138 209.858 167.269C209.674 167.399 209.447 167.456 209.223 167.427C208.999 167.398 208.795 167.286 208.65 167.114Z" fill="#E3FFF0"/>
<path opacity="0.7" d="M159.352 116.122L17.9936 216.774L85.9427 310.82L227.301 210.168L159.352 116.122Z" fill="url(#paint34_linear)"/>
<path opacity="0.3" d="M206.769 181.772L93.2484 163.21L128.788 137.916L181.29 146.491L206.769 181.772Z" fill="#F5FEFF"/>
<path opacity="0.3" d="M224.526 206.347L68.5176 180.838L86.2755 168.192L211.787 188.719L224.526 206.347Z" fill="#F5FEFF"/>
</g>
<path d="M110.282 190.252C113.183 190.026 116.095 190.494 118.775 191.617C120.657 192.719 115.977 192.862 113.709 193.102C111.441 193.341 107.749 190.347 110.282 190.252Z" fill="#FFAF84"/>
<path d="M112.936 192.144C118.438 194.97 121.791 195.569 123.48 198.084C125.169 200.599 119.523 201.341 117.448 200.647C115.373 199.952 107.797 197.916 106.905 195.497C106.012 193.078 108.859 190.06 112.936 192.144Z" fill="#FFAF84"/>
<path d="M70.11 169.629C71.5335 166.108 75.5629 158.707 88.2781 143.88C92.6567 138.656 97.4059 133.749 102.489 129.198C107.17 124.91 111.827 127.713 112.14 131.162C112.505 136.533 110.874 141.85 107.556 146.108C94.2135 159.737 83.8145 169.653 81.0157 173.605C76.7692 179.257 68.4211 173.796 70.11 169.629Z" fill="url(#paint35_linear)"/>
<path d="M108.738 195.641C105.891 196.311 104.854 192.958 96.1919 189.413C87.6482 186.317 79.67 181.86 72.571 176.216C67.3112 172.311 70.8579 163.234 78.048 166.635C84.1281 169.581 107.194 188.192 110.886 189.868C113.322 191.138 111.079 195.09 108.738 195.641Z" fill="url(#paint36_linear)"/>
<path d="M191.882 127.305C190.301 125.649 188.991 123.758 187.997 121.701C187.418 120.359 187.997 118.611 189.541 118.755C192.145 119.296 194.456 120.771 196.032 122.898C196.744 124.658 196.744 126.623 196.032 128.383C195.404 129.916 193.788 129.341 191.882 127.305Z" fill="#FFAF84"/>
<defs>
<linearGradient id="paint0_linear" x1="123.842" y1="45.9641" x2="235.07" y2="45.9641" gradientUnits="userSpaceOnUse">
<stop stop-color="#008161"/>
<stop offset="1" stop-color="#9FFF31"/>
</linearGradient>
<linearGradient id="paint1_linear" x1="4848.58" y1="179.137" x2="7678.22" y2="179.137" gradientUnits="userSpaceOnUse">
<stop stop-color="#008161"/>
<stop offset="1" stop-color="#9FFF31"/>
</linearGradient>
<linearGradient id="paint2_linear" x1="3327.79" y1="210.701" x2="5233.12" y2="210.701" gradientUnits="userSpaceOnUse">
<stop stop-color="#008161"/>
<stop offset="1" stop-color="#9FFF31"/>
</linearGradient>
<linearGradient id="paint3_linear" x1="317.249" y1="395.425" x2="303.118" y2="318.31" gradientUnits="userSpaceOnUse">
<stop stop-color="#F70F47"/>
<stop offset="1" stop-color="#FFB41D"/>
</linearGradient>
<linearGradient id="paint4_linear" x1="1121.25" y1="90.8777" x2="1241.36" y2="90.8777" gradientUnits="userSpaceOnUse">
<stop stop-color="#F70F47"/>
<stop offset="1" stop-color="#FFB41D"/>
</linearGradient>
<linearGradient id="paint5_linear" x1="511.765" y1="430.707" x2="514.452" y2="359.591" gradientUnits="userSpaceOnUse">
<stop stop-color="#36078B"/>
<stop offset="1" stop-color="#168D68"/>
</linearGradient>
<linearGradient id="paint6_linear" x1="10167.8" y1="2884.77" x2="9263.02" y2="3320.29" gradientUnits="userSpaceOnUse">
<stop stop-color="#36078B"/>
<stop offset="1" stop-color="#168D68"/>
</linearGradient>
<linearGradient id="paint7_linear" x1="476.105" y1="65.6288" x2="452.823" y2="28.9476" gradientUnits="userSpaceOnUse">
<stop stop-color="#36078B"/>
<stop offset="1" stop-color="#16B1FF"/>
</linearGradient>
<linearGradient id="paint8_linear" x1="16452.8" y1="10596.1" x2="17135.3" y2="4526.73" gradientUnits="userSpaceOnUse">
<stop stop-color="#36078B"/>
<stop offset="1" stop-color="#168D68"/>
</linearGradient>
<linearGradient id="paint9_linear" x1="14779.5" y1="6302.46" x2="14533.4" y2="1728.27" gradientUnits="userSpaceOnUse">
<stop stop-color="#F70F47"/>
<stop offset="1" stop-color="#FFB41D"/>
</linearGradient>
<linearGradient id="paint10_linear" x1="7691.9" y1="18392.3" x2="3620.54" y2="6078.22" gradientUnits="userSpaceOnUse">
<stop stop-color="#F70F47"/>
<stop offset="1" stop-color="#FFB41D"/>
</linearGradient>
<linearGradient id="paint11_linear" x1="9532.6" y1="20355.3" x2="5474.73" y2="6337.59" gradientUnits="userSpaceOnUse">
<stop stop-color="#F70F47"/>
<stop offset="1" stop-color="#FFB41D"/>
</linearGradient>
<linearGradient id="paint12_linear" x1="7647.07" y1="18882.3" x2="3661.62" y2="6229.36" gradientUnits="userSpaceOnUse">
<stop stop-color="#F70F47"/>
<stop offset="1" stop-color="#FFB41D"/>
</linearGradient>
<linearGradient id="paint13_linear" x1="7674.23" y1="20447.6" x2="3029.16" y2="6874.55" gradientUnits="userSpaceOnUse">
<stop stop-color="#F70F47"/>
<stop offset="1" stop-color="#FFB41D"/>
</linearGradient>
<linearGradient id="paint14_linear" x1="9208.63" y1="1363.71" x2="10744.7" y2="938.191" gradientUnits="userSpaceOnUse">
<stop stop-color="#36078B"/>
<stop offset="1" stop-color="#168D68"/>
</linearGradient>
<linearGradient id="paint15_linear" x1="10657.6" y1="735.604" x2="9160.43" y2="850.471" gradientUnits="userSpaceOnUse">
<stop stop-color="#36078B"/>
<stop offset="1" stop-color="#168D68"/>
</linearGradient>
<linearGradient id="paint16_linear" x1="7297.73" y1="2920.44" x2="7304.89" y2="2502.9" gradientUnits="userSpaceOnUse">
<stop stop-color="#36078B"/>
<stop offset="1" stop-color="#168D68"/>
</linearGradient>
<linearGradient id="paint17_linear" x1="3678.34" y1="506.642" x2="3457.96" y2="273.188" gradientUnits="userSpaceOnUse">
<stop stop-color="#36078B"/>
<stop offset="1" stop-color="#16B1FF"/>
</linearGradient>
<linearGradient id="paint18_linear" x1="13194.6" y1="-6670.42" x2="14319.8" y2="-5854.9" gradientUnits="userSpaceOnUse">
<stop stop-color="#36078B"/>
<stop offset="1" stop-color="#168D68"/>
</linearGradient>
<linearGradient id="paint19_linear" x1="9034.42" y1="459.998" x2="8932.72" y2="114.972" gradientUnits="userSpaceOnUse">
<stop stop-color="#36078B"/>
<stop offset="1" stop-color="#16B1FF"/>
</linearGradient>
<linearGradient id="paint20_linear" x1="177.236" y1="151.832" x2="83.6099" y2="83.8305" gradientUnits="userSpaceOnUse">
<stop stop-color="#2C27CE"/>
<stop offset="0.65" stop-color="#EF1D68"/>
<stop offset="1" stop-color="#EFBA92"/>
</linearGradient>
<linearGradient id="paint21_linear" x1="131.911" y1="114.376" x2="170.988" y2="181.303" gradientUnits="userSpaceOnUse">
<stop stop-color="#F70F47"/>
<stop offset="1" stop-color="#9E005D"/>
</linearGradient>
<linearGradient id="paint22_linear" x1="5987.43" y1="6234.78" x2="6154.88" y2="7530.79" gradientUnits="userSpaceOnUse">
<stop stop-color="#F70F47"/>
<stop offset="1" stop-color="#9E005D"/>
</linearGradient>
<linearGradient id="paint23_linear" x1="4492.53" y1="6157.94" x2="5252.39" y2="9899.6" gradientUnits="userSpaceOnUse">
<stop stop-color="#F70F47"/>
<stop offset="1" stop-color="#9E005D"/>
</linearGradient>
<linearGradient id="paint24_linear" x1="4639.92" y1="2974.48" x2="4285.15" y2="4725.07" gradientUnits="userSpaceOnUse">
<stop stop-color="#36078B"/>
<stop offset="1" stop-color="#168D68"/>
</linearGradient>
<linearGradient id="paint25_linear" x1="2488.81" y1="3029.58" x2="-638.974" y2="5484.07" gradientUnits="userSpaceOnUse">
<stop stop-color="#36078B"/>
<stop offset="1" stop-color="#168D68"/>
</linearGradient>
<linearGradient id="paint26_linear" x1="2823.21" y1="9223.6" x2="-183.706" y2="12011.4" gradientUnits="userSpaceOnUse">
<stop stop-color="#36078B"/>
<stop offset="1" stop-color="#168D68"/>
</linearGradient>
<linearGradient id="paint27_linear" x1="197.938" y1="225.844" x2="155.906" y2="349.051" gradientUnits="userSpaceOnUse">
<stop stop-color="#36078B"/>
<stop offset="0.41" stop-color="#293E7D"/>
<stop offset="1" stop-color="#168D68"/>
</linearGradient>
<linearGradient id="paint28_linear" x1="3062.61" y1="9662.73" x2="96.1752" y2="12214.7" gradientUnits="userSpaceOnUse">
<stop stop-color="#36078B"/>
<stop offset="1" stop-color="#168D68"/>
</linearGradient>
<linearGradient id="paint29_linear" x1="2465.36" y1="2705.25" x2="2476.7" y2="2407.12" gradientUnits="userSpaceOnUse">
<stop stop-color="#2C27CE"/>
<stop offset="0.65" stop-color="#EF1D68"/>
<stop offset="1" stop-color="#EFBA92"/>
</linearGradient>
<linearGradient id="paint30_linear" x1="1539.08" y1="3291.94" x2="1562.4" y2="2831.67" gradientUnits="userSpaceOnUse">
<stop stop-color="#2C27CE"/>
<stop offset="0.65" stop-color="#EF1D68"/>
<stop offset="1" stop-color="#EFBA92"/>
</linearGradient>
<linearGradient id="paint31_linear" x1="3448.17" y1="1650.54" x2="2888.93" y2="808.808" gradientUnits="userSpaceOnUse">
<stop stop-color="#2C27CE"/>
<stop offset="0.65" stop-color="#EF1D68"/>
<stop offset="1" stop-color="#EFBA92"/>
</linearGradient>
<linearGradient id="paint32_linear" x1="1465.33" y1="1029.6" x2="1074.11" y2="684.411" gradientUnits="userSpaceOnUse">
<stop stop-color="#2C27CE"/>
<stop offset="0.65" stop-color="#EF1D68"/>
<stop offset="1" stop-color="#EFBA92"/>
</linearGradient>
<linearGradient id="paint33_linear" x1="10.0162" y1="294.782" x2="247.024" y2="123.542" gradientUnits="userSpaceOnUse">
<stop stop-color="#2C27CE"/>
<stop offset="1" stop-color="#EF1D68"/>
</linearGradient>
<linearGradient id="paint34_linear" x1="-14.3586" y1="311.024" x2="180.687" y2="170.103" gradientUnits="userSpaceOnUse">
<stop stop-color="#2CA6EF"/>
<stop offset="1" stop-color="#B1FFFF"/>
</linearGradient>
<linearGradient id="paint35_linear" x1="6738.7" y1="-401.693" x2="5456.87" y2="796.587" gradientUnits="userSpaceOnUse">
<stop stop-color="#F70F47"/>
<stop offset="1" stop-color="#9E005D"/>
</linearGradient>
<linearGradient id="paint36_linear" x1="3095.83" y1="-3593.96" x2="2409.95" y2="-3047.68" gradientUnits="userSpaceOnUse">
<stop stop-color="#F70F47"/>
<stop offset="1" stop-color="#9E005D"/>
</linearGradient>
</defs>
</svg>
