<svg width="157" height="176" viewBox="0 0 157 176" fill="none" xmlns="http://www.w3.org/2000/svg">
<g clip-path="url(#clip0)">
<path d="M112.844 77C118.263 77 122.656 72.0751 122.656 66C122.656 59.9249 118.263 55 112.844 55C107.424 55 103.031 59.9249 103.031 66C103.031 72.0751 107.424 77 112.844 77Z" fill="white"/>
<path d="M137.375 27.4999H79.6774C76.0797 22.4285 71.5272 18.3106 66.3453 15.4402C61.1634 12.5698 55.4799 11.0178 49.7009 10.8951C43.922 10.7724 38.1901 12.082 32.915 14.7304C27.6398 17.3788 22.9515 21.3006 19.1851 26.2155C15.4187 31.1305 12.6671 36.9173 11.1269 43.1625C9.58665 49.4077 9.29587 55.9572 10.2753 62.343C11.2547 68.7288 13.4802 74.7933 16.7927 80.1032C20.1051 85.4131 24.4229 89.8374 29.4374 93.0598V148.5C29.4374 151.417 30.4712 154.215 32.3114 156.278C34.1516 158.341 36.6475 159.5 39.2499 159.5H137.375C139.977 159.5 142.473 158.341 144.313 156.278C146.154 154.215 147.187 151.417 147.187 148.5V38.4999C147.187 35.5825 146.154 32.7846 144.313 30.7217C142.473 28.6588 139.977 27.4999 137.375 27.4999ZM19.6249 54.9998C19.6363 47.7462 21.7794 40.6989 25.7226 34.9478C29.6659 29.1966 35.1896 25.0622 41.4395 23.1839C47.6893 21.3055 54.3172 21.7879 60.2979 24.5565C66.2787 27.325 71.2791 32.2254 74.5258 38.4999H39.2499V49.4999H78.0583C78.3291 51.3181 78.4767 53.1567 78.4999 54.9998C78.4767 56.843 78.3291 58.6816 78.0583 60.4998H49.0624V71.4998H74.5258C71.2791 77.7743 66.2787 82.6747 60.2979 85.4433C54.3172 88.2118 47.6893 88.6942 41.4395 86.8158C35.1896 84.9375 29.6659 80.8031 25.7226 75.0519C21.7794 69.3008 19.6363 62.2535 19.6249 54.9998ZM137.375 148.5H39.2499L63.7811 121L71.5821 129.745C73.4206 131.794 75.9076 132.944 78.4999 132.944C81.0922 132.944 83.5792 131.794 85.4177 129.745L112.844 98.9999L137.375 126.5V148.5ZM137.375 110.935L119.761 91.1898C117.923 89.1411 115.436 87.9911 112.844 87.9911C110.251 87.9911 107.764 89.1411 105.926 91.1898L78.4999 121.935L70.699 113.19C68.8605 111.141 66.3735 109.991 63.7811 109.991C61.1888 109.991 58.7018 111.141 56.8633 113.19L39.2499 132.935V97.5698C42.4562 98.4951 45.7517 98.9754 49.0624 98.9999C59.4721 98.9999 69.4555 94.3642 76.8163 86.1125C84.1771 77.8609 88.3124 66.6694 88.3124 54.9998C88.3152 49.341 87.3319 43.7361 85.4177 38.4999H137.375V110.935Z" fill="white"/>
</g>
<defs>
<clipPath id="clip0">
<rect width="157" height="176" fill="white"/>
</clipPath>
</defs>
</svg>
